<svg width="25" height="25" viewBox="0 0 25 25" fill="none" xmlns="http://www.w3.org/2000/svg">
<path d="M16.4301 15.8129C16.3067 15.8841 16.1571 15.9099 16.0034 15.8687C15.7063 15.7891 15.5263 15.4773 15.6059 15.1802L17.1267 9.50438L11.4509 7.98355C11.1538 7.90394 10.9738 7.59217 11.0534 7.29506C11.133 6.99795 11.4448 6.81795 11.7419 6.89756L17.9607 8.56389C18.2578 8.6435 18.4378 8.95527 18.3582 9.25238L16.6919 15.4712C16.6507 15.6249 16.5536 15.7416 16.4301 15.8129Z" fill="#262626"/>
<path d="M17.9859 9.65766L7.05452 15.9689C6.78822 16.1227 6.43988 16.0293 6.28613 15.763C6.13238 15.4967 6.22572 15.1484 6.49202 14.9946L17.4234 8.68338C17.6897 8.52963 18.0381 8.62297 18.1918 8.88927C18.3456 9.15557 18.2522 9.50391 17.9859 9.65766Z" fill="#262626"/>
</svg>
