<svg width="42" height="42" viewBox="0 0 42 42" fill="none" xmlns="http://www.w3.org/2000/svg">
<g filter="url(#filter0_i_201_32606)">
<rect width="42" height="42" rx="21" fill="#262626"/>
<path d="M22.8199 26.1163C22.6774 26.1163 22.5349 26.0638 22.4224 25.9513C22.2049 25.7338 22.2049 25.3738 22.4224 25.1563L26.5774 21.0013L22.4224 16.8463C22.2049 16.6288 22.2049 16.2688 22.4224 16.0513C22.6399 15.8338 22.9999 15.8338 23.2174 16.0513L27.7699 20.6038C27.9874 20.8213 27.9874 21.1813 27.7699 21.3988L23.2174 25.9513C23.1049 26.0638 22.9624 26.1163 22.8199 26.1163Z" fill="white"/>
<path d="M27.2448 21.564H14.6223C14.3148 21.564 14.0598 21.309 14.0598 21.0015C14.0598 20.694 14.3148 20.439 14.6223 20.439H27.2448C27.5523 20.439 27.8073 20.694 27.8073 21.0015C27.8073 21.309 27.5523 21.564 27.2448 21.564Z" fill="white"/>
</g>
<defs>
<filter id="filter0_i_201_32606" x="0" y="0" width="44" height="46" filterUnits="userSpaceOnUse" color-interpolation-filters="sRGB">
<feFlood flood-opacity="0" result="BackgroundImageFix"/>
<feBlend mode="normal" in="SourceGraphic" in2="BackgroundImageFix" result="shape"/>
<feColorMatrix in="SourceAlpha" type="matrix" values="0 0 0 0 0 0 0 0 0 0 0 0 0 0 0 0 0 0 127 0" result="hardAlpha"/>
<feOffset dx="2" dy="4"/>
<feGaussianBlur stdDeviation="2.5"/>
<feComposite in2="hardAlpha" operator="arithmetic" k2="-1" k3="1"/>
<feColorMatrix type="matrix" values="0 0 0 0 1 0 0 0 0 1 0 0 0 0 1 0 0 0 0.12 0"/>
<feBlend mode="normal" in2="shape" result="effect1_innerShadow_201_32606"/>
</filter>
</defs>
</svg>
