<svg width="358" height="307" viewBox="0 0 358 307" fill="none" xmlns="http://www.w3.org/2000/svg">
<g clip-path="url(#clip0_38_14035)">
<path d="M0 38.4C0 24.9587 0 18.2381 2.61584 13.1042C4.9168 8.58834 8.58834 4.9168 13.1042 2.61584C18.2381 0 24.9587 0 38.4 0H319.6C333.041 0 339.762 0 344.896 2.61584C349.412 4.9168 353.083 8.58834 355.384 13.1042C358 18.2381 358 24.9587 358 38.4V268.6C358 282.041 358 288.762 355.384 293.896C353.083 298.412 349.412 302.083 344.896 304.384C339.762 307 333.041 307 319.6 307H38.4C24.9587 307 18.2381 307 13.1042 304.384C8.58834 302.083 4.9168 298.412 2.61584 293.896C0 288.762 0 282.041 0 268.6V38.4Z" fill="#F6F7F9"/>
<mask id="mask0_38_14035" style="mask-type:alpha" maskUnits="userSpaceOnUse" x="18" y="0" width="340" height="340">
<circle cx="188" cy="170" r="170" fill="#00040A"/>
</mask>
<g mask="url(#mask0_38_14035)">
<g filter="url(#filter0_f_38_14035)">
<ellipse cx="188" cy="314.874" rx="98.3648" ry="25.1258" fill="#536AF6" fill-opacity="0.5"/>
</g>
<g filter="url(#filter1_f_38_14035)">
<ellipse cx="187.618" cy="25.1258" rx="98.3648" ry="25.1258" fill="#536AF6" fill-opacity="0.18"/>
</g>
</g>
<mask id="mask1_38_14035" style="mask-type:alpha" maskUnits="userSpaceOnUse" x="18" y="0" width="340" height="340">
<circle cx="188" cy="170" r="169.465" stroke="white" stroke-width="1.06918"/>
</mask>
<g mask="url(#mask1_38_14035)">
<g style="mix-blend-mode:overlay" filter="url(#filter2_f_38_14035)">
<circle cx="188.535" cy="170.535" r="114.937" fill="white"/>
</g>
</g>
<mask id="mask2_38_14035" style="mask-type:alpha" maskUnits="userSpaceOnUse" x="65" y="63" width="247" height="247">
<circle cx="188.144" cy="186.144" r="123.144" fill="#1A1D22"/>
</mask>
<g mask="url(#mask2_38_14035)">
<g filter="url(#filter3_f_38_14035)">
<ellipse cx="188.143" cy="291.087" rx="71.2528" ry="18.2005" fill="#536AF6" fill-opacity="0.2"/>
</g>
<g filter="url(#filter4_f_38_14035)">
<ellipse cx="188.253" cy="109.2" rx="71.2528" ry="18.2005" fill="#536AF6" fill-opacity="0.37"/>
</g>
</g>
<mask id="mask3_38_14035" style="mask-type:alpha" maskUnits="userSpaceOnUse" x="65" y="63" width="247" height="247">
<circle cx="188.144" cy="186.144" r="122.756" stroke="white" stroke-width="0.774487"/>
</mask>
<g mask="url(#mask3_38_14035)">
<g style="mix-blend-mode:overlay" filter="url(#filter5_f_38_14035)">
<circle cx="188.531" cy="186.531" r="83.2574" fill="white"/>
</g>
</g>
<path d="M43.8333 140C46.2938 139.997 48.6685 140.887 50.5 142.5V158C48.6685 156.387 46.2938 155.497 43.8333 155.5C42.2713 155.5 41.4903 155.5 41.1453 155.279C40.9381 155.147 40.8535 155.062 40.7209 154.855C40.5 154.51 40.5 153.894 40.5 152.663V143.403C40.5 141.975 40.5 141.262 41.0487 140.683C41.5975 140.104 42.1592 140.074 43.2827 140.015C43.465 140.005 43.6486 140 43.8333 140Z" stroke="#4842C4" stroke-width="1.5" stroke-linecap="round" stroke-linejoin="round"/>
<path d="M50.5 158V142.5C52.3315 140.887 54.7062 139.997 57.1667 140C57.3514 140 57.535 140.005 57.7173 140.015C58.8408 140.074 59.4025 140.104 59.9513 140.683C60.5 141.262 60.5 141.975 60.5 143.403V148.5" stroke="#4842C4" stroke-width="1.5" stroke-linecap="round" stroke-linejoin="round"/>
<path d="M60.1887 151.934L59.5661 151.311C59.151 150.896 58.478 150.896 58.0629 151.311L54.7141 154.66C54.269 155.105 53.9656 155.672 53.8421 156.29L53.5 158L55.2105 157.658C55.8278 157.534 56.3948 157.231 56.8399 156.786L60.1887 153.437C60.6038 153.022 60.6038 152.349 60.1887 151.934Z" stroke="#4842C4" stroke-width="1.5" stroke-linecap="round" stroke-linejoin="round"/>
<path d="M18.76 180.024L15.24 172.776H16.936L18.68 176.496L19.4 178.184H19.504L20.224 176.496L21.96 172.776H23.656L20.144 180.024H18.76ZM18.664 183V178.536H20.24V183H18.664ZM26.833 183.2C25.681 183.2 24.8063 182.893 24.209 182.28C23.6117 181.667 23.313 180.784 23.313 179.632V178.52C23.313 177.373 23.6117 176.496 24.209 175.888C24.8063 175.275 25.681 174.968 26.833 174.968C27.985 174.968 28.857 175.275 29.449 175.888C30.0463 176.496 30.345 177.373 30.345 178.52V179.632C30.345 180.784 30.0463 181.667 29.449 182.28C28.857 182.893 27.985 183.2 26.833 183.2ZM26.833 181.928C27.4677 181.928 27.9503 181.739 28.281 181.36C28.6117 180.981 28.777 180.437 28.777 179.728V178.424C28.777 177.72 28.6117 177.181 28.281 176.808C27.9503 176.429 27.4677 176.24 26.833 176.24C26.1983 176.24 25.7157 176.429 25.385 176.808C25.0543 177.181 24.889 177.72 24.889 178.424V179.728C24.889 180.437 25.0543 180.981 25.385 181.36C25.7157 181.739 26.1983 181.928 26.833 181.928ZM33.4953 175.176V180.008C33.4953 180.381 33.5459 180.709 33.6473 180.992C33.7539 181.269 33.9273 181.485 34.1673 181.64C34.4073 181.795 34.7299 181.872 35.1353 181.872C35.5193 181.872 35.8473 181.803 36.1193 181.664C36.3966 181.525 36.6233 181.339 36.7993 181.104C36.9753 180.864 37.0979 180.597 37.1673 180.304L37.4233 181.392H37.0873C36.9966 181.717 36.8473 182.016 36.6393 182.288C36.4313 182.56 36.1539 182.776 35.8073 182.936C35.4606 183.096 35.0313 183.176 34.5193 183.176C33.9113 183.176 33.4153 183.061 33.0312 182.832C32.6526 182.597 32.3726 182.259 32.1913 181.816C32.0153 181.368 31.9273 180.824 31.9273 180.184V175.176H33.4953ZM38.6793 175.176V183H37.1113L37.1753 181.168L37.1113 181.072V175.176H38.6793ZM42.1679 178.272L41.8319 177.048H42.2159C42.3812 176.429 42.6585 175.944 43.0479 175.592C43.4372 175.235 43.9679 175.056 44.6399 175.056C44.7999 175.056 44.9412 175.069 45.0639 175.096C45.1919 175.117 45.3065 175.144 45.4079 175.176L45.5039 176.704C45.3759 176.661 45.2319 176.629 45.0719 176.608C44.9119 176.581 44.7385 176.568 44.5519 176.568C43.9812 176.568 43.4879 176.715 43.0719 177.008C42.6559 177.301 42.3545 177.723 42.1679 178.272ZM40.6639 183V175.176H42.1919L42.1199 177.456L42.2319 177.568V183H40.6639ZM53.0873 183.192C52.6019 183.192 52.1539 183.155 51.7433 183.08C51.3326 183.005 50.9646 182.912 50.6393 182.8C50.3193 182.688 50.0473 182.576 49.8233 182.464L49.6713 180.888C50.0819 181.123 50.5673 181.331 51.1273 181.512C51.6926 181.693 52.3033 181.784 52.9593 181.784C53.7059 181.784 54.2553 181.661 54.6073 181.416C54.9593 181.165 55.1353 180.789 55.1353 180.288V180.168C55.1353 179.843 55.0633 179.576 54.9193 179.368C54.7806 179.155 54.5433 178.973 54.2073 178.824C53.8713 178.669 53.4153 178.523 52.8393 178.384C52.0819 178.197 51.4686 177.979 50.9993 177.728C50.5353 177.472 50.1966 177.155 49.9833 176.776C49.7699 176.392 49.6633 175.915 49.6633 175.344V175.264C49.6633 174.405 49.9486 173.744 50.5193 173.28C51.0899 172.816 51.9459 172.584 53.0873 172.584C53.8179 172.584 54.4419 172.656 54.9593 172.8C55.4819 172.939 55.9113 173.096 56.2473 173.272L56.3913 174.736C56.0019 174.512 55.5539 174.325 55.0473 174.176C54.5406 174.021 53.9699 173.944 53.3353 173.944C52.8393 173.944 52.4419 174 52.1433 174.112C51.8446 174.219 51.6286 174.376 51.4953 174.584C51.3619 174.787 51.2953 175.032 51.2953 175.32V175.352C51.2953 175.651 51.3619 175.907 51.4953 176.12C51.6286 176.333 51.8633 176.523 52.1993 176.688C52.5406 176.848 53.0233 177.008 53.6473 177.168C54.3886 177.355 54.9859 177.565 55.4393 177.8C55.8979 178.029 56.2339 178.331 56.4473 178.704C56.6606 179.072 56.7673 179.557 56.7673 180.16V180.32C56.7673 181.264 56.4606 181.979 55.8473 182.464C55.2339 182.949 54.3139 183.192 53.0873 183.192ZM61.154 183.16C60.53 183.16 60.0287 183.067 59.65 182.88C59.2713 182.688 58.9967 182.403 58.826 182.024C58.6553 181.64 58.57 181.163 58.57 180.592V175.808H60.122V180.408C60.122 180.888 60.2313 181.24 60.45 181.464C60.6687 181.688 61.0367 181.8 61.554 181.8C61.8633 181.8 62.1593 181.768 62.442 181.704C62.7247 181.64 62.986 181.549 63.226 181.432L63.09 182.76C62.834 182.888 62.538 182.987 62.202 183.056C61.866 183.125 61.5167 183.16 61.154 183.16ZM57.346 176.52V175.272H63.154L63.018 176.52H57.346ZM58.586 175.408L58.578 173.256L60.146 173.072L60.082 175.408H58.586ZM67.5986 183.2C66.4466 183.2 65.572 182.893 64.9746 182.28C64.3773 181.667 64.0786 180.784 64.0786 179.632V178.52C64.0786 177.373 64.3773 176.496 64.9746 175.888C65.572 175.275 66.4466 174.968 67.5986 174.968C68.7506 174.968 69.6226 175.275 70.2146 175.888C70.812 176.496 71.1106 177.373 71.1106 178.52V179.632C71.1106 180.784 70.812 181.667 70.2146 182.28C69.6226 182.893 68.7506 183.2 67.5986 183.2ZM67.5986 181.928C68.2333 181.928 68.716 181.739 69.0466 181.36C69.3773 180.981 69.5426 180.437 69.5426 179.728V178.424C69.5426 177.72 69.3773 177.181 69.0466 176.808C68.716 176.429 68.2333 176.24 67.5986 176.24C66.964 176.24 66.4813 176.429 66.1506 176.808C65.82 177.181 65.6546 177.72 65.6546 178.424V179.728C65.6546 180.437 65.82 180.981 66.1506 181.36C66.4813 181.739 66.964 181.928 67.5986 181.928ZM74.2929 178.272L73.9569 177.048H74.3409C74.5062 176.429 74.7835 175.944 75.1729 175.592C75.5622 175.235 76.0929 175.056 76.7649 175.056C76.9249 175.056 77.0662 175.069 77.1889 175.096C77.3169 175.117 77.4315 175.144 77.5329 175.176L77.6289 176.704C77.5009 176.661 77.3569 176.629 77.1969 176.608C77.0369 176.581 76.8635 176.568 76.6769 176.568C76.1062 176.568 75.6129 176.715 75.1969 177.008C74.7809 177.301 74.4795 177.723 74.2929 178.272ZM72.7889 183V175.176H74.3169L74.2449 177.456L74.3569 177.568V183H72.7889ZM82.6346 181.616L81.8026 181.976L84.0026 175.176H85.6106L82.0506 185.752H80.4666L81.7066 182.08L82.4106 182.672H80.6426L78.1866 175.176H79.8106L81.7626 181.616H82.6346Z" fill="#4842C4"/>
<path d="M193.58 35.7102C193.076 35.5731 192.547 35.5 192 35.5C189.467 35.5 187.3 37.0699 186.42 39.2898M193.58 35.7102C196.127 36.4036 198 38.7331 198 41.5C198 44.8137 195.314 47.5 192 47.5C190.463 47.5 189.061 46.9223 188 45.9722M193.58 35.7102C193.851 35.0262 194 34.2805 194 33.5C194 30.1863 191.314 27.5 188 27.5C184.686 27.5 182 30.1863 182 33.5C182 34.2805 182.149 35.0262 182.42 35.7102M186.42 39.2898C186.149 39.9738 186 40.7195 186 41.5C186 43.277 186.773 44.8736 188 45.9722M186.42 39.2898C184.591 38.792 183.11 37.451 182.42 35.7102M188 45.9722C186.939 46.9223 185.537 47.5 184 47.5C180.686 47.5 178 44.8137 178 41.5C178 38.7331 179.873 36.4036 182.42 35.7102" stroke="#4842C4" stroke-width="1.5" stroke-linecap="round"/>
<path d="M167.376 72L164.336 61.776H166.016L168.536 70.792H168.72L171.24 61.776H172.92L169.888 72H167.376ZM174.204 72V64.176H175.772V72H174.204ZM174.988 63.024C174.678 63.024 174.446 62.9467 174.292 62.792C174.142 62.632 174.068 62.4133 174.068 62.136V62.104C174.068 61.8267 174.142 61.6107 174.292 61.456C174.446 61.296 174.678 61.216 174.988 61.216C175.297 61.216 175.526 61.296 175.676 61.456C175.83 61.6107 175.908 61.8267 175.908 62.104V62.136C175.908 62.4187 175.83 62.6373 175.676 62.792C175.526 62.9467 175.297 63.024 174.988 63.024ZM180.27 72.184C179.641 72.184 179.089 72.12 178.614 71.992C178.139 71.8587 177.742 71.7147 177.422 71.56L177.278 70.128C177.673 70.3253 178.107 70.4987 178.582 70.648C179.057 70.792 179.59 70.864 180.182 70.864C180.753 70.864 181.174 70.7813 181.446 70.616C181.723 70.4453 181.862 70.1947 181.862 69.864V69.8C181.862 69.5867 181.806 69.4107 181.694 69.272C181.582 69.128 181.382 69 181.094 68.888C180.811 68.776 180.409 68.6613 179.886 68.544C179.23 68.3947 178.713 68.2187 178.334 68.016C177.955 67.8133 177.683 67.5653 177.518 67.272C177.358 66.9733 177.278 66.616 177.278 66.2V66.128C177.278 65.424 177.523 64.8907 178.014 64.528C178.505 64.1653 179.241 63.984 180.222 63.984C180.841 63.984 181.379 64.0507 181.838 64.184C182.297 64.3173 182.675 64.4693 182.974 64.64L183.118 65.944C182.761 65.752 182.353 65.592 181.894 65.464C181.441 65.3307 180.937 65.264 180.382 65.264C180.003 65.264 179.699 65.3013 179.47 65.376C179.241 65.4453 179.075 65.5467 178.974 65.68C178.873 65.808 178.822 65.9627 178.822 66.144V66.2C178.822 66.3973 178.875 66.5707 178.982 66.72C179.089 66.864 179.278 66.9947 179.55 67.112C179.827 67.224 180.211 67.3333 180.702 67.44C181.363 67.5787 181.891 67.7413 182.286 67.928C182.681 68.1147 182.966 68.3547 183.142 68.648C183.318 68.936 183.406 69.3093 183.406 69.768V69.888C183.406 70.6507 183.145 71.224 182.622 71.608C182.099 71.992 181.315 72.184 180.27 72.184ZM186.308 64.176V69.008C186.308 69.3813 186.358 69.7093 186.46 69.992C186.566 70.2693 186.74 70.4853 186.98 70.64C187.22 70.7947 187.542 70.872 187.948 70.872C188.332 70.872 188.66 70.8027 188.932 70.664C189.209 70.5253 189.436 70.3387 189.612 70.104C189.788 69.864 189.91 69.5973 189.98 69.304L190.236 70.392H189.9C189.809 70.7173 189.66 71.016 189.452 71.288C189.244 71.56 188.966 71.776 188.62 71.936C188.273 72.096 187.844 72.176 187.332 72.176C186.724 72.176 186.228 72.0613 185.844 71.832C185.465 71.5973 185.185 71.2587 185.004 70.816C184.828 70.368 184.74 69.824 184.74 69.184V64.176H186.308ZM191.492 64.176V72H189.924L189.988 70.168L189.924 70.072V64.176H191.492ZM198.076 72L198.14 70.144L198.084 69.904V67.44L198.092 67.048C198.092 66.4453 197.938 66.0027 197.628 65.72C197.324 65.4373 196.834 65.296 196.156 65.296C195.607 65.296 195.098 65.3733 194.628 65.528C194.159 65.6827 193.735 65.8613 193.356 66.064L193.5 64.752C193.714 64.6293 193.964 64.5093 194.252 64.392C194.54 64.2747 194.866 64.1787 195.228 64.104C195.591 64.0293 195.988 63.992 196.42 63.992C197.012 63.992 197.514 64.064 197.924 64.208C198.335 64.3467 198.666 64.5493 198.916 64.816C199.167 65.0827 199.348 65.4027 199.46 65.776C199.578 66.1493 199.636 66.5653 199.636 67.024V72H198.076ZM195.428 72.176C194.655 72.176 194.063 71.9867 193.652 71.608C193.242 71.224 193.036 70.68 193.036 69.976V69.736C193.036 68.9893 193.266 68.4373 193.724 68.08C194.188 67.7173 194.916 67.4667 195.908 67.328L198.26 66.992L198.348 68.128L196.092 68.448C195.554 68.5227 195.17 68.6533 194.94 68.84C194.711 69.0213 194.596 69.2907 194.596 69.648V69.76C194.596 70.1173 194.706 70.392 194.924 70.584C195.148 70.776 195.487 70.872 195.94 70.872C196.356 70.872 196.714 70.8027 197.012 70.664C197.311 70.5253 197.554 70.3413 197.74 70.112C197.927 69.8773 198.055 69.6187 198.124 69.336L198.34 70.384H198.052C197.967 70.704 197.826 71 197.628 71.272C197.431 71.544 197.154 71.7627 196.796 71.928C196.444 72.0933 195.988 72.176 195.428 72.176ZM201.524 72V61.408H203.092V72H201.524ZM207.629 72.184C207 72.184 206.448 72.12 205.973 71.992C205.499 71.8587 205.101 71.7147 204.781 71.56L204.637 70.128C205.032 70.3253 205.467 70.4987 205.941 70.648C206.416 70.792 206.949 70.864 207.541 70.864C208.112 70.864 208.533 70.7813 208.805 70.616C209.083 70.4453 209.221 70.1947 209.221 69.864V69.8C209.221 69.5867 209.165 69.4107 209.053 69.272C208.941 69.128 208.741 69 208.453 68.888C208.171 68.776 207.768 68.6613 207.245 68.544C206.589 68.3947 206.072 68.2187 205.693 68.016C205.315 67.8133 205.043 67.5653 204.877 67.272C204.717 66.9733 204.637 66.616 204.637 66.2V66.128C204.637 65.424 204.883 64.8907 205.373 64.528C205.864 64.1653 206.6 63.984 207.581 63.984C208.2 63.984 208.739 64.0507 209.197 64.184C209.656 64.3173 210.035 64.4693 210.333 64.64L210.477 65.944C210.12 65.752 209.712 65.592 209.253 65.464C208.8 65.3307 208.296 65.264 207.741 65.264C207.363 65.264 207.059 65.3013 206.829 65.376C206.6 65.4453 206.435 65.5467 206.333 65.68C206.232 65.808 206.181 65.9627 206.181 66.144V66.2C206.181 66.3973 206.235 66.5707 206.341 66.72C206.448 66.864 206.637 66.9947 206.909 67.112C207.187 67.224 207.571 67.3333 208.061 67.44C208.723 67.5787 209.251 67.7413 209.645 67.928C210.04 68.1147 210.325 68.3547 210.501 68.648C210.677 68.936 210.765 69.3093 210.765 69.768V69.888C210.765 70.6507 210.504 71.224 209.981 71.608C209.459 71.992 208.675 72.184 207.629 72.184Z" fill="#4842C4"/>
<path d="M314.037 147.867L315.093 149.996C315.236 150.292 315.62 150.576 315.944 150.631L317.858 150.952C319.082 151.157 319.37 152.052 318.488 152.936L317 154.436C316.748 154.69 316.61 155.18 316.688 155.531L317.114 157.388C317.45 158.857 316.676 159.426 315.386 158.658L313.593 157.587C313.269 157.394 312.735 157.394 312.405 157.587L310.611 158.658C309.327 159.426 308.547 158.851 308.883 157.388L309.309 155.531C309.387 155.18 309.249 154.69 308.997 154.436L307.509 152.936C306.633 152.052 306.915 151.157 308.139 150.952L310.053 150.631C310.371 150.576 310.755 150.292 310.899 149.996L311.955 147.867C312.531 146.711 313.467 146.711 314.037 147.867Z" stroke="#4842C4" stroke-width="1.5" stroke-linecap="round" stroke-linejoin="round"/>
<path d="M327 139L319 147M321 139L316 144M325 147L322 150" stroke="#4842C4" stroke-width="1.5" stroke-linecap="round"/>
<path d="M292.752 183H291.144V172.776H292.752V183ZM297.435 183.176C296.502 183.176 295.79 182.883 295.299 182.296C294.814 181.709 294.571 180.853 294.571 179.728V178.488C294.571 177.352 294.816 176.488 295.307 175.896C295.803 175.299 296.534 175 297.499 175C297.963 175 298.36 175.075 298.691 175.224C299.027 175.368 299.299 175.573 299.507 175.84C299.72 176.107 299.872 176.421 299.963 176.784H300.483L300.043 178.232C300.027 177.805 299.934 177.448 299.763 177.16C299.592 176.867 299.358 176.645 299.059 176.496C298.76 176.347 298.411 176.272 298.011 176.272C297.408 176.272 296.947 176.445 296.627 176.792C296.307 177.139 296.147 177.653 296.147 178.336V179.832C296.147 180.499 296.304 181.005 296.619 181.352C296.939 181.699 297.403 181.872 298.011 181.872C298.379 181.872 298.702 181.803 298.979 181.664C299.262 181.525 299.496 181.336 299.683 181.096C299.87 180.856 299.998 180.587 300.067 180.288L300.435 181.392H299.979C299.894 181.717 299.75 182.016 299.547 182.288C299.35 182.56 299.08 182.776 298.739 182.936C298.398 183.096 297.963 183.176 297.435 183.176ZM300.003 183L300.067 181.168L300.043 180.672V177.424L300.051 177.12L300.011 174.904V172.408H301.571V183H300.003ZM306.987 183.184C305.739 183.184 304.803 182.888 304.179 182.296C303.56 181.699 303.251 180.84 303.251 179.72V178.44C303.251 177.336 303.539 176.483 304.115 175.88C304.696 175.272 305.541 174.968 306.651 174.968C307.403 174.968 308.029 175.107 308.531 175.384C309.032 175.656 309.408 176.043 309.659 176.544C309.909 177.045 310.035 177.64 310.035 178.328V178.624C310.035 178.805 310.027 178.989 310.011 179.176C309.995 179.363 309.973 179.541 309.947 179.712H308.507C308.517 179.435 308.523 179.173 308.523 178.928C308.528 178.683 308.531 178.459 308.531 178.256C308.531 177.824 308.461 177.459 308.323 177.16C308.184 176.861 307.976 176.635 307.699 176.48C307.421 176.32 307.072 176.24 306.651 176.24C306.027 176.24 305.563 176.419 305.259 176.776C304.955 177.128 304.803 177.632 304.803 178.288V179.024L304.811 179.208V179.904C304.811 180.197 304.853 180.464 304.939 180.704C305.029 180.944 305.171 181.152 305.363 181.328C305.56 181.499 305.813 181.632 306.123 181.728C306.432 181.819 306.808 181.864 307.251 181.864C307.752 181.864 308.221 181.8 308.659 181.672C309.101 181.544 309.517 181.373 309.907 181.16L309.763 182.496C309.411 182.704 309 182.872 308.531 183C308.067 183.123 307.552 183.184 306.987 183.184ZM304.083 179.712V178.536H309.627V179.712H304.083ZM316.832 183V178.168C316.832 177.789 316.779 177.461 316.672 177.184C316.571 176.907 316.4 176.691 316.16 176.536C315.926 176.381 315.603 176.304 315.192 176.304C314.814 176.304 314.486 176.373 314.208 176.512C313.931 176.651 313.704 176.837 313.528 177.072C313.358 177.307 313.235 177.573 313.16 177.872L312.904 176.784H313.24C313.331 176.453 313.48 176.155 313.688 175.888C313.896 175.616 314.174 175.4 314.52 175.24C314.867 175.08 315.296 175 315.808 175C316.422 175 316.918 175.117 317.296 175.352C317.675 175.581 317.952 175.917 318.128 176.36C318.31 176.803 318.4 177.347 318.4 177.992V183H316.832ZM311.648 183V175.176H313.216L313.152 177.008L313.216 177.104V183H311.648ZM323.17 183.16C322.546 183.16 322.044 183.067 321.666 182.88C321.287 182.688 321.012 182.403 320.842 182.024C320.671 181.64 320.586 181.163 320.586 180.592V175.808H322.138V180.408C322.138 180.888 322.247 181.24 322.466 181.464C322.684 181.688 323.052 181.8 323.57 181.8C323.879 181.8 324.175 181.768 324.458 181.704C324.74 181.64 325.002 181.549 325.242 181.432L325.106 182.76C324.85 182.888 324.554 182.987 324.218 183.056C323.882 183.125 323.532 183.16 323.17 183.16ZM319.362 176.52V175.272H325.17L325.034 176.52H319.362ZM320.602 175.408L320.594 173.256L322.162 173.072L322.098 175.408H320.602ZM326.61 183V175.176H328.178V183H326.61ZM327.394 174.024C327.084 174.024 326.852 173.947 326.698 173.792C326.548 173.632 326.474 173.413 326.474 173.136V173.104C326.474 172.827 326.548 172.611 326.698 172.456C326.852 172.296 327.084 172.216 327.394 172.216C327.703 172.216 327.932 172.296 328.082 172.456C328.236 172.611 328.314 172.827 328.314 173.104V173.136C328.314 173.419 328.236 173.637 328.082 173.792C327.932 173.947 327.703 174.024 327.394 174.024ZM333.092 183.16C332.468 183.16 331.966 183.067 331.588 182.88C331.209 182.688 330.934 182.403 330.764 182.024C330.593 181.64 330.508 181.163 330.508 180.592V175.808H332.06V180.408C332.06 180.888 332.169 181.24 332.388 181.464C332.606 181.688 332.974 181.8 333.492 181.8C333.801 181.8 334.097 181.768 334.38 181.704C334.662 181.64 334.924 181.549 335.164 181.432L335.028 182.76C334.772 182.888 334.476 182.987 334.14 183.056C333.804 183.125 333.454 183.16 333.092 183.16ZM329.284 176.52V175.272H335.092L334.956 176.52H329.284ZM330.524 175.408L330.516 173.256L332.084 173.072L332.02 175.408H330.524ZM340.119 181.616L339.287 181.976L341.487 175.176H343.095L339.535 185.752H337.951L339.191 182.08L339.895 182.672H338.127L335.671 175.176H337.295L339.247 181.616H340.119Z" fill="#4842C4"/>
<rect x="123" y="127" width="130" height="64" rx="19" fill="#4842C4"/>
<path d="M147.113 161.841L143.162 153.498H145.646L147.329 157.287L148.085 159.177H148.22L148.976 157.287L150.65 153.498H153.134L149.201 161.841H147.113ZM146.996 165V159.699H149.318V165H146.996ZM157.044 165.243C155.676 165.243 154.638 164.892 153.93 164.19C153.228 163.488 152.877 162.489 152.877 161.193V159.996C152.877 158.694 153.228 157.692 153.93 156.99C154.638 156.282 155.676 155.928 157.044 155.928C158.406 155.928 159.438 156.282 160.14 156.99C160.842 157.692 161.193 158.694 161.193 159.996V161.193C161.193 162.489 160.842 163.488 160.14 164.19C159.444 164.892 158.412 165.243 157.044 165.243ZM157.044 163.398C157.644 163.398 158.1 163.218 158.412 162.858C158.73 162.498 158.889 161.982 158.889 161.31V159.879C158.889 159.195 158.73 158.673 158.412 158.313C158.1 157.947 157.644 157.764 157.044 157.764C156.438 157.764 155.976 157.947 155.658 158.313C155.346 158.673 155.19 159.195 155.19 159.879V161.31C155.19 161.982 155.346 162.498 155.658 162.858C155.976 163.218 156.438 163.398 157.044 163.398ZM165.452 156.171V161.481C165.452 161.847 165.5 162.168 165.596 162.444C165.698 162.714 165.863 162.924 166.091 163.074C166.325 163.218 166.637 163.29 167.027 163.29C167.381 163.29 167.687 163.227 167.945 163.101C168.203 162.975 168.416 162.807 168.584 162.597C168.752 162.381 168.875 162.141 168.953 161.877L169.313 163.128H168.881C168.785 163.512 168.623 163.863 168.395 164.181C168.173 164.493 167.867 164.742 167.477 164.928C167.093 165.114 166.61 165.207 166.028 165.207C165.356 165.207 164.807 165.078 164.381 164.82C163.961 164.562 163.649 164.181 163.445 163.677C163.247 163.173 163.148 162.552 163.148 161.814V156.171H165.452ZM171.203 156.171V165H168.908L168.989 162.858L168.899 162.669V156.171H171.203ZM175.823 159.87L175.238 158.331H175.796C175.958 157.617 176.252 157.056 176.678 156.648C177.104 156.24 177.695 156.036 178.451 156.036C178.607 156.036 178.748 156.048 178.874 156.072C179 156.09 179.114 156.114 179.216 156.144L179.342 158.448C179.21 158.406 179.057 158.376 178.883 158.358C178.709 158.334 178.526 158.322 178.334 158.322C177.722 158.322 177.2 158.457 176.768 158.727C176.342 158.997 176.027 159.378 175.823 159.87ZM173.582 165V156.171H175.778L175.679 158.88L175.886 158.961V165H173.582ZM186.781 165V163.11H190.003C190.627 163.11 191.071 162.987 191.335 162.741C191.599 162.489 191.731 162.132 191.731 161.67V161.454C191.731 160.98 191.596 160.62 191.326 160.374C191.062 160.128 190.606 160.005 189.958 160.005H186.754V158.241H189.904C190.498 158.241 190.921 158.118 191.173 157.872C191.425 157.626 191.551 157.281 191.551 156.837V156.72C191.551 156.276 191.428 155.937 191.182 155.703C190.936 155.469 190.51 155.352 189.904 155.352H186.736V153.498H190.147C191.479 153.498 192.436 153.735 193.018 154.209C193.6 154.683 193.891 155.37 193.891 156.27V156.423C193.891 157.107 193.72 157.638 193.378 158.016C193.042 158.394 192.514 158.619 191.794 158.691V158.781C192.604 158.913 193.192 159.201 193.558 159.645C193.93 160.089 194.116 160.713 194.116 161.517V161.814C194.116 162.846 193.81 163.635 193.198 164.181C192.592 164.727 191.617 165 190.273 165H186.781ZM185.107 165V153.498H187.402V165H185.107ZM198.366 159.87L197.781 158.331H198.339C198.501 157.617 198.795 157.056 199.221 156.648C199.647 156.24 200.238 156.036 200.994 156.036C201.15 156.036 201.291 156.048 201.417 156.072C201.543 156.09 201.657 156.114 201.759 156.144L201.885 158.448C201.753 158.406 201.6 158.376 201.426 158.358C201.252 158.334 201.069 158.322 200.877 158.322C200.265 158.322 199.743 158.457 199.311 158.727C198.885 158.997 198.57 159.378 198.366 159.87ZM196.125 165V156.171H198.321L198.222 158.88L198.429 158.961V165H196.125ZM208.365 165L208.446 162.84L208.383 162.642V159.879L208.374 159.483C208.374 158.907 208.215 158.484 207.897 158.214C207.585 157.944 207.072 157.809 206.358 157.809C205.752 157.809 205.182 157.89 204.648 158.052C204.12 158.208 203.631 158.391 203.181 158.601L203.379 156.765C203.643 156.627 203.943 156.498 204.279 156.378C204.621 156.252 205.002 156.15 205.422 156.072C205.842 155.994 206.295 155.955 206.781 155.955C207.501 155.955 208.11 156.042 208.608 156.216C209.106 156.384 209.502 156.627 209.796 156.945C210.096 157.263 210.312 157.644 210.444 158.088C210.576 158.526 210.642 159.012 210.642 159.546V165H208.365ZM205.476 165.207C204.6 165.207 203.931 164.988 203.469 164.55C203.013 164.112 202.785 163.488 202.785 162.678V162.426C202.785 161.568 203.049 160.935 203.577 160.527C204.105 160.113 204.942 159.828 206.088 159.672L208.59 159.33L208.725 160.815L206.421 161.148C205.917 161.214 205.557 161.334 205.341 161.508C205.131 161.682 205.026 161.937 205.026 162.273V162.363C205.026 162.693 205.128 162.951 205.332 163.137C205.542 163.317 205.869 163.407 206.313 163.407C206.709 163.407 207.048 163.344 207.33 163.218C207.612 163.092 207.843 162.927 208.023 162.723C208.209 162.513 208.341 162.279 208.419 162.021L208.743 163.164H208.347C208.251 163.542 208.095 163.887 207.879 164.199C207.669 164.505 207.372 164.751 206.988 164.937C206.604 165.117 206.1 165.207 205.476 165.207ZM218.645 165V159.699C218.645 159.327 218.594 159.006 218.492 158.736C218.396 158.466 218.234 158.256 218.006 158.106C217.778 157.956 217.466 157.881 217.07 157.881C216.722 157.881 216.416 157.944 216.152 158.07C215.894 158.196 215.681 158.367 215.513 158.583C215.351 158.793 215.228 159.033 215.144 159.303L214.784 158.043H215.216C215.312 157.653 215.471 157.302 215.693 156.99C215.921 156.678 216.227 156.432 216.611 156.252C217.001 156.066 217.487 155.973 218.069 155.973C218.747 155.973 219.296 156.102 219.716 156.36C220.136 156.612 220.445 156.99 220.643 157.494C220.847 157.998 220.949 158.622 220.949 159.366V165H218.645ZM212.894 165V156.171H215.198L215.108 158.322L215.198 158.511V165H212.894ZM226.1 165.207C225.062 165.207 224.273 164.871 223.733 164.199C223.193 163.527 222.923 162.537 222.923 161.229V160.014C222.923 158.688 223.196 157.683 223.742 156.999C224.288 156.315 225.101 155.973 226.181 155.973C226.709 155.973 227.153 156.057 227.513 156.225C227.879 156.393 228.173 156.633 228.395 156.945C228.623 157.257 228.782 157.623 228.872 158.043H229.547L228.962 159.753C228.95 159.339 228.863 158.991 228.701 158.709C228.545 158.421 228.326 158.202 228.044 158.052C227.762 157.902 227.429 157.827 227.045 157.827C226.463 157.827 226.016 157.995 225.704 158.331C225.398 158.667 225.245 159.168 225.245 159.834V161.292C225.245 161.952 225.398 162.45 225.704 162.786C226.016 163.122 226.469 163.29 227.063 163.29C227.399 163.29 227.699 163.227 227.963 163.101C228.227 162.975 228.446 162.804 228.62 162.588C228.8 162.366 228.929 162.117 229.007 161.841L229.556 163.128H228.908C228.812 163.512 228.656 163.863 228.44 164.181C228.224 164.493 227.927 164.742 227.549 164.928C227.171 165.114 226.688 165.207 226.1 165.207ZM228.926 165L229.007 162.84L228.962 162.327V158.718L228.971 158.349L228.926 155.82V153.102H231.23V165H228.926Z" fill="white"/>
</g>
<path d="M38.4004 0.5H319.6C326.328 0.5 331.345 0.500279 335.322 0.825195C339.293 1.14965 342.184 1.7955 344.669 3.06152C349.091 5.31452 352.685 8.90941 354.938 13.3311C356.204 15.8158 356.85 18.7066 357.175 22.6777C357.5 26.6547 357.5 31.6716 357.5 38.4004V268.6C357.5 275.328 357.5 280.345 357.175 284.322C356.85 288.293 356.204 291.184 354.938 293.669C352.685 298.091 349.091 301.685 344.669 303.938C342.184 305.204 339.293 305.85 335.322 306.175C331.345 306.5 326.328 306.5 319.6 306.5H38.4004C31.6716 306.5 26.6547 306.5 22.6777 306.175C18.7066 305.85 15.8158 305.204 13.3311 303.938C8.90941 301.685 5.31452 298.091 3.06152 293.669C1.7955 291.184 1.14965 288.293 0.825195 284.322C0.500279 280.345 0.5 275.328 0.5 268.6V38.4004L0.504883 33.6641C0.520222 29.228 0.581506 25.6605 0.825195 22.6777C1.14965 18.7066 1.7955 15.8158 3.06152 13.3311C5.31452 8.90941 8.90941 5.31452 13.3311 3.06152C15.8158 1.7955 18.7066 1.14965 22.6777 0.825195C26.6547 0.500279 31.6716 0.5 38.4004 0.5Z" stroke="#E2E4E9"/>
<defs>
<filter id="filter0_f_38_14035" x="-75.0188" y="125.094" width="526.038" height="379.56" filterUnits="userSpaceOnUse" color-interpolation-filters="sRGB">
<feFlood flood-opacity="0" result="BackgroundImageFix"/>
<feBlend mode="normal" in="SourceGraphic" in2="BackgroundImageFix" result="shape"/>
<feGaussianBlur stdDeviation="82.327" result="effect1_foregroundBlur_38_14035"/>
</filter>
<filter id="filter1_f_38_14035" x="9.79039" y="-79.4624" width="355.654" height="209.176" filterUnits="userSpaceOnUse" color-interpolation-filters="sRGB">
<feFlood flood-opacity="0" result="BackgroundImageFix"/>
<feBlend mode="normal" in="SourceGraphic" in2="BackgroundImageFix" result="shape"/>
<feGaussianBlur stdDeviation="39.7312" result="effect1_foregroundBlur_38_14035"/>
</filter>
<filter id="filter2_f_38_14035" x="-133.824" y="-151.824" width="644.717" height="644.717" filterUnits="userSpaceOnUse" color-interpolation-filters="sRGB">
<feFlood flood-opacity="0" result="BackgroundImageFix"/>
<feBlend mode="normal" in="SourceGraphic" in2="BackgroundImageFix" result="shape"/>
<feGaussianBlur stdDeviation="103.711" result="effect1_foregroundBlur_38_14035"/>
</filter>
<filter id="filter3_f_38_14035" x="-2.38045" y="153.615" width="381.048" height="274.943" filterUnits="userSpaceOnUse" color-interpolation-filters="sRGB">
<feFlood flood-opacity="0" result="BackgroundImageFix"/>
<feBlend mode="normal" in="SourceGraphic" in2="BackgroundImageFix" result="shape"/>
<feGaussianBlur stdDeviation="59.6355" result="effect1_foregroundBlur_38_14035"/>
</filter>
<filter id="filter4_f_38_14035" x="36.4533" y="10.4533" width="303.599" height="197.494" filterUnits="userSpaceOnUse" color-interpolation-filters="sRGB">
<feFlood flood-opacity="0" result="BackgroundImageFix"/>
<feBlend mode="normal" in="SourceGraphic" in2="BackgroundImageFix" result="shape"/>
<feGaussianBlur stdDeviation="40.2733" result="effect1_foregroundBlur_38_14035"/>
</filter>
<filter id="filter5_f_38_14035" x="-44.9773" y="-46.9771" width="467.016" height="467.016" filterUnits="userSpaceOnUse" color-interpolation-filters="sRGB">
<feFlood flood-opacity="0" result="BackgroundImageFix"/>
<feBlend mode="normal" in="SourceGraphic" in2="BackgroundImageFix" result="shape"/>
<feGaussianBlur stdDeviation="75.1253" result="effect1_foregroundBlur_38_14035"/>
</filter>
<clipPath id="clip0_38_14035">
<path d="M0 38.4C0 24.9587 0 18.2381 2.61584 13.1042C4.9168 8.58834 8.58834 4.9168 13.1042 2.61584C18.2381 0 24.9587 0 38.4 0H319.6C333.041 0 339.762 0 344.896 2.61584C349.412 4.9168 353.083 8.58834 355.384 13.1042C358 18.2381 358 24.9587 358 38.4V268.6C358 282.041 358 288.762 355.384 293.896C353.083 298.412 349.412 302.083 344.896 304.384C339.762 307 333.041 307 319.6 307H38.4C24.9587 307 18.2381 307 13.1042 304.384C8.58834 302.083 4.9168 298.412 2.61584 293.896C0 288.762 0 282.041 0 268.6V38.4Z" fill="white"/>
</clipPath>
</defs>
</svg>
