<svg width="48" height="48" viewBox="0 0 48 48" fill="none" xmlns="http://www.w3.org/2000/svg">
<rect width="48" height="48" rx="8" fill="white" fill-opacity="0.5"/>
<rect x="0.5" y="0.5" width="47" height="47" rx="7.5" stroke="#141B34" stroke-opacity="0.2"/>
<path d="M29.4782 20.0003C29.4856 20.0003 29.4931 20.0002 29.5006 20.0002C31.9859 20.0002 34.0006 22.0149 34.0006 24.5002C34.0006 26.4595 32.7484 28.1264 31.0006 28.7441M29.4782 20.0003C29.493 19.8356 29.5006 19.6688 29.5006 19.5002C29.5006 16.4627 27.0382 14.0002 24.0006 14.0002C21.1239 14.0002 18.7629 16.2089 18.521 19.0229M29.4782 20.0003C29.3759 21.1347 28.9292 22.1698 28.2434 23.0002M18.521 19.0229C15.9846 19.2643 14.0006 21.4006 14.0006 24.0002C14.0006 26.0505 15.2347 27.8126 17.0006 28.5842M18.521 19.0229C18.6789 19.0079 18.8388 19.0002 19.0006 19.0002C20.1264 19.0002 21.1654 19.3723 22.0011 20.0002" stroke="#141B34" stroke-width="1.5" stroke-linecap="round" stroke-linejoin="round"/>
<path d="M30.2506 33.2502L28.0006 31.0002L28.0006 29.0002M30.2506 32.5002C29.8364 32.5002 29.5006 32.836 29.5006 33.2502C29.5006 33.6644 29.8364 34.0002 30.2506 34.0002C30.6648 34.0002 31.0006 33.6644 31.0006 33.2502C31.0006 32.836 30.6648 32.5002 30.2506 32.5002Z" stroke="#141B34" stroke-width="1.5" stroke-linecap="round" stroke-linejoin="round"/>
<path d="M17.7506 33.2502L20.0006 31.0002L20.0006 29.0002M17.7506 32.5002C18.1648 32.5002 18.5006 32.836 18.5006 33.2502C18.5006 33.6644 18.1648 34.0002 17.7506 34.0002C17.3364 34.0002 17.0006 33.6644 17.0006 33.2502C17.0006 32.836 17.3364 32.5002 17.7506 32.5002Z" stroke="#141B34" stroke-width="1.5" stroke-linecap="round" stroke-linejoin="round"/>
<path d="M24.0006 33.2502L24.0006 29.0002M24.0006 32.5002C23.5864 32.5002 23.2506 32.836 23.2506 33.2502C23.2506 33.6644 23.5864 34.0002 24.0006 34.0002C24.4148 34.0002 24.7506 33.6644 24.7506 33.2502C24.7506 32.836 24.4148 32.5002 24.0006 32.5002Z" stroke="#141B34" stroke-width="1.5" stroke-linecap="round" stroke-linejoin="round"/>
</svg>
