<svg width="48" height="48" viewBox="0 0 48 48" fill="none" xmlns="http://www.w3.org/2000/svg">
<rect width="48" height="48" rx="8" fill="white" fill-opacity="0.5"/>
<rect x="0.5" y="0.5" width="47" height="47" rx="7.5" stroke="#141B34" stroke-opacity="0.2"/>
<path d="M24.9216 14.2608L31.4316 17.7708C32.1916 18.1808 32.1916 19.3508 31.4316 19.7608L24.9216 23.2708C24.3416 23.5808 23.6616 23.5808 23.0816 23.2708L16.5716 19.7608C15.8116 19.3508 15.8116 18.1808 16.5716 17.7708L23.0816 14.2608C23.6616 13.9508 24.3416 13.9508 24.9216 14.2608Z" stroke="#171717" stroke-width="1.5" stroke-linecap="round" stroke-linejoin="round"/>
<path d="M15.6116 22.1309L21.6616 25.1609C22.4116 25.5409 22.8916 26.3109 22.8916 27.1509V32.8709C22.8916 33.7009 22.0216 34.2309 21.2816 33.8609L15.2316 30.8309C14.4816 30.4509 14.0016 29.6809 14.0016 28.8409V23.1209C14.0016 22.2909 14.8716 21.7609 15.6116 22.1309Z" stroke="#171717" stroke-width="1.5" stroke-linecap="round" stroke-linejoin="round"/>
<path d="M32.3916 22.1309L26.3416 25.1609C25.5916 25.5409 25.1116 26.3109 25.1116 27.1509V32.8709C25.1116 33.7009 25.9816 34.2309 26.7216 33.8609L32.7716 30.8309C33.5216 30.4509 34.0016 29.6809 34.0016 28.8409V23.1209C34.0016 22.2909 33.1316 21.7609 32.3916 22.1309Z" stroke="#171717" stroke-width="1.5" stroke-linecap="round" stroke-linejoin="round"/>
</svg>
