<svg width="48" height="48" viewBox="0 0 48 48" fill="none" xmlns="http://www.w3.org/2000/svg">
<rect width="48" height="48" rx="8" fill="white" fill-opacity="0.5"/>
<rect x="0.5" y="0.5" width="47" height="47" rx="7.5" stroke="#141B34" stroke-opacity="0.2"/>
<path d="M24.0009 20.0016C28.4191 20.0016 32.0009 18.6584 32.0009 17.0016C32.0009 15.3447 28.4191 14.0016 24.0009 14.0016C19.5826 14.0016 16.0009 15.3447 16.0009 17.0016C16.0009 18.6584 19.5826 20.0016 24.0009 20.0016Z" stroke="#141B34" stroke-width="1.5"/>
<path d="M19.0009 22.8436C19.6024 23.0245 20.2752 23.1734 21.0009 23.2836" stroke="#141B34" stroke-width="1.5" stroke-linecap="round"/>
<path d="M32.0009 24.0016C32.0009 25.6585 28.4192 27.0016 24.0009 27.0016C19.5826 27.0016 16.0009 25.6585 16.0009 24.0016" stroke="#141B34" stroke-width="1.5"/>
<path d="M19.0009 29.8436C19.6024 30.0245 20.2752 30.1734 21.0009 30.2836" stroke="#141B34" stroke-width="1.5" stroke-linecap="round"/>
<path d="M32.0009 17.0016V31.0016C32.0009 32.6585 28.4192 34.0016 24.0009 34.0016C19.5826 34.0016 16.0009 32.6585 16.0009 31.0016V17.0016" stroke="#141B34" stroke-width="1.5"/>
</svg>
