<svg width="60" height="60" viewBox="0 0 60 60" fill="none" xmlns="http://www.w3.org/2000/svg">
<rect width="60" height="60" rx="16" fill="#34495E" fill-opacity="0.1"/>
<path d="M41 30.1168C41 31.7975 40.7267 33.3553 40.1391 34.7217C39.5516 36.1155 38.7727 37.318 37.7888 38.3019C36.805 39.313 35.6435 40.0646 34.2907 40.6248C32.9516 41.1851 31.5304 41.431 29.9863 41.431C28.4832 41.431 27.0485 41.1578 25.7093 40.5975C24.3702 40.0373 23.2224 39.2584 22.2112 38.2472C21.2 37.236 20.4211 36.0335 19.8609 34.6671C19.2733 33.2733 19 31.7565 19 30.0894V11H24.5068V21.0571C24.8075 20.6882 25.1491 20.3602 25.5727 20.046C25.9963 19.7317 26.4335 19.513 26.9391 19.3217C27.4174 19.1304 27.9503 18.9801 28.4422 18.8981C28.9752 18.7888 29.4807 18.7615 29.9727 18.7615C31.5031 18.7615 32.9379 19.0348 34.277 19.6224C35.6161 20.1826 36.764 20.9888 37.7752 22C38.759 23.0112 39.5652 24.2137 40.1255 25.6075C40.7267 26.9602 41 28.4634 41 30.1168ZM35.4932 30.1168C35.4932 29.2832 35.3565 28.518 35.0696 27.7938C34.7826 27.0696 34.4 26.4547 33.8944 25.9217C33.3888 25.3888 32.8286 25.0062 32.159 24.6919C31.4894 24.3913 30.7925 24.241 30.041 24.241C29.2894 24.241 28.5925 24.405 27.923 24.7466C27.2534 25.0882 26.6932 25.4981 26.1876 26.0584C25.682 26.5913 25.2994 27.2335 25.0124 27.9304C24.7391 28.6273 24.5888 29.3515 24.5888 30.1168C24.5888 30.9503 24.7255 31.7155 25.0124 32.4397C25.2857 33.1366 25.682 33.7515 26.1876 34.2845C26.6932 34.8174 27.2534 35.2 27.923 35.5143C28.5925 35.8149 29.2894 35.9652 30.041 35.9652C30.7925 35.9652 31.4894 35.8286 32.159 35.5143C32.8286 35.2137 33.3888 34.7901 33.8944 34.2845C34.4 33.7515 34.7826 33.1366 35.0696 32.4397C35.3565 31.7429 35.4932 30.9503 35.4932 30.1168Z" fill="#34495E"/>
<path d="M40.795 43.6172H19V49.2607H40.795V43.6172Z" fill="#F62D2D"/>
</svg>
