<svg width="308" height="246" viewBox="0 0 308 246" fill="none" xmlns="http://www.w3.org/2000/svg">
<path d="M7.75024 227.467C7.75024 223.267 7.75024 221.167 8.5677 219.562C9.28675 218.151 10.4341 217.004 11.8453 216.285C13.4497 215.467 15.5499 215.467 19.7502 215.467H33.2502C37.4506 215.467 39.5508 215.467 41.1552 216.285C42.5664 217.004 43.7137 218.151 44.4328 219.562C45.2502 221.167 45.2502 223.267 45.2502 227.467V245.467H7.75024V227.467Z" fill="#FBEAF9"/>
<path d="M60.2502 197.467C60.2502 193.267 60.2502 191.167 61.0677 189.562C61.7867 188.151 62.9341 187.004 64.3453 186.285C65.9497 185.467 68.0499 185.467 72.2502 185.467H85.7502C89.9506 185.467 92.0508 185.467 93.6552 186.285C95.0664 187.004 96.2137 188.151 96.9328 189.562C97.7502 191.167 97.7502 193.267 97.7502 197.467V245.467H60.2502V197.467Z" fill="#FBEAF9"/>
<path d="M112.75 186.217C112.75 182.017 112.75 179.917 113.568 178.312C114.287 176.901 115.434 175.754 116.845 175.035C118.45 174.217 120.55 174.217 124.75 174.217H138.25C142.451 174.217 144.551 174.217 146.155 175.035C147.566 175.754 148.714 176.901 149.433 178.312C150.25 179.917 150.25 182.017 150.25 186.217V245.467H112.75V186.217Z" fill="#FBEAF9"/>
<path d="M165.25 178.717C165.25 174.517 165.25 172.417 166.068 170.812C166.787 169.401 167.934 168.254 169.345 167.535C170.95 166.717 173.05 166.717 177.25 166.717H190.75C194.951 166.717 197.051 166.717 198.655 167.535C200.066 168.254 201.214 169.401 201.933 170.812C202.75 172.417 202.75 174.517 202.75 178.717V245.467H165.25V178.717Z" fill="#FBEAF9"/>
<path d="M217.75 141.217C217.75 137.017 217.75 134.917 218.568 133.312C219.287 131.901 220.434 130.754 221.845 130.035C223.45 129.217 225.55 129.217 229.75 129.217H243.25C247.451 129.217 249.551 129.217 251.155 130.035C252.566 130.754 253.714 131.901 254.433 133.312C255.25 134.917 255.25 137.017 255.25 141.217V245.467H217.75V141.217Z" fill="#FBEAF9"/>
<path d="M270.25 66.2174C270.25 62.017 270.25 59.9168 271.068 58.3125C271.787 56.9013 272.934 55.7539 274.345 55.0349C275.95 54.2174 278.05 54.2174 282.25 54.2174H295.75C299.951 54.2174 302.051 54.2174 303.655 55.0349C305.066 55.7539 306.214 56.9013 306.933 58.3125C307.75 59.9168 307.75 62.017 307.75 66.2174V245.467H270.25V66.2174Z" fill="#FBEAF9"/>
<path d="M96.5654 148.952C50.5174 167.033 19.0884 201.128 7.75024 222.463V245.001H293.752C293.752 164.731 294.716 111.533 294.749 32.1963C294.75 30.8533 293.056 30.2372 292.243 31.3064C280.511 46.7438 230.648 111.973 208.057 135.429C182.357 162.113 137.153 133.015 96.5654 148.952Z" fill="url(#paint0_linear_201_32508)"/>
<path d="M3.75024 203.501C3.75024 203.501 51.3833 137.93 96.8127 124.404C131.2 114.165 157.383 141.934 188.688 124.404C235.563 98.1535 286.874 8.15491 286.874 8.15491" stroke="url(#paint1_linear_201_32508)" stroke-width="7.5" stroke-linecap="round"/>
<path d="M293.176 21.9303C293.176 21.9303 291.028 7.69955 288.246 6.09372C285.465 4.4879 272.067 9.74279 272.067 9.74279" stroke="#F611DC" stroke-width="4.875" stroke-linecap="round" stroke-linejoin="round"/>
<defs>
<linearGradient id="paint0_linear_201_32508" x1="149.004" y1="35.8558" x2="149.004" y2="245.001" gradientUnits="userSpaceOnUse">
<stop stop-color="#FF94E2"/>
<stop offset="1" stop-color="white" stop-opacity="0"/>
</linearGradient>
<linearGradient id="paint1_linear_201_32508" x1="145.312" y1="8.15491" x2="145.312" y2="203.501" gradientUnits="userSpaceOnUse">
<stop stop-color="#F72DE0"/>
<stop offset="1" stop-color="#A3119C"/>
</linearGradient>
</defs>
</svg>
