<svg width="60" height="60" viewBox="0 0 60 60" fill="none" xmlns="http://www.w3.org/2000/svg">
<rect width="60" height="60" rx="12" fill="#8863FF" fill-opacity="0.1"/>
<path d="M17.0171 23.49H19.6991V36H17.0171V30.816H12.2471V36H9.56509V23.49H12.2471V28.422H17.0171V23.49ZM24.6924 33.678H30.5064V36H22.0104V23.49H30.3984V25.812H24.6924V28.476H29.7324V30.798H24.6924V33.678ZM39.7812 29.34C41.1312 29.898 41.9052 31.032 41.9052 32.454C41.9052 34.56 40.4292 36 37.8012 36H32.3112V23.49H37.9992C40.1412 23.49 41.4732 24.678 41.4732 26.532C41.4732 27.72 40.8252 28.746 39.7812 29.34ZM38.8092 27.072C38.8092 26.208 38.2692 25.632 37.2072 25.632H34.9572V28.512H37.1712C38.1432 28.512 38.8092 27.954 38.8092 27.072ZM37.4052 33.858C38.5752 33.858 39.2412 33.264 39.2412 32.238C39.2412 31.212 38.5032 30.654 37.3872 30.654H34.9572V33.858H37.4052ZM52.3536 23.49V25.866H48.6636V36H45.9816V25.866H42.2916V23.49H52.3536Z" fill="#6738F5"/>
</svg>
