<svg width="20" height="20" viewBox="0 0 20 20" fill="none" xmlns="http://www.w3.org/2000/svg">
<path d="M2.08325 10.0002C2.08325 6.26821 2.08325 4.40224 3.24262 3.24286C4.40199 2.0835 6.26797 2.0835 9.99992 2.0835C13.7318 2.0835 15.5978 2.0835 16.7573 3.24286C17.9166 4.40224 17.9166 6.26821 17.9166 10.0002C17.9166 13.7321 17.9166 15.5981 16.7573 16.7575C15.5978 17.9168 13.7318 17.9168 9.99992 17.9168C6.26797 17.9168 4.40199 17.9168 3.24262 16.7575C2.08325 15.5981 2.08325 13.7321 2.08325 10.0002Z" stroke="#0E091F" stroke-width="1.5" stroke-linejoin="round"/>
<path d="M13.75 10C13.75 12.0711 12.0711 13.75 10 13.75C7.92893 13.75 6.25 12.0711 6.25 10C6.25 7.92893 7.92893 6.25 10 6.25C12.0711 6.25 13.75 7.92893 13.75 10Z" stroke="#0E091F" stroke-width="1.5"/>
<path d="M14.5898 5.4165H14.5823" stroke="#0E091F" stroke-width="2" stroke-linecap="round" stroke-linejoin="round"/>
</svg>
