<svg width="20" height="20" viewBox="0 0 20 20" fill="none" xmlns="http://www.w3.org/2000/svg">
<path d="M5.83337 8.3335V14.1668" stroke="#0E091F" stroke-width="1.5" stroke-linecap="round" stroke-linejoin="round"/>
<path d="M9.16663 10.8335V14.1668M9.16663 10.8335C9.16663 9.45275 10.2859 8.3335 11.6666 8.3335C13.0474 8.3335 14.1666 9.45275 14.1666 10.8335V14.1668M9.16663 10.8335V8.3335" stroke="#0E091F" stroke-width="1.5" stroke-linecap="round" stroke-linejoin="round"/>
<path d="M5.84001 5.8335H5.83252" stroke="#0E091F" stroke-width="2" stroke-linecap="round" stroke-linejoin="round"/>
<path d="M2.08337 10.0002C2.08337 6.26821 2.08337 4.40224 3.24274 3.24286C4.40212 2.0835 6.26809 2.0835 10 2.0835C13.732 2.0835 15.598 2.0835 16.7574 3.24286C17.9167 4.40224 17.9167 6.26821 17.9167 10.0002C17.9167 13.7321 17.9167 15.5981 16.7574 16.7575C15.598 17.9168 13.732 17.9168 10 17.9168C6.26809 17.9168 4.40212 17.9168 3.24274 16.7575C2.08337 15.5981 2.08337 13.7321 2.08337 10.0002Z" stroke="#0E091F" stroke-width="1.5" stroke-linejoin="round"/>
</svg>
