<svg width="48" height="48" viewBox="0 0 48 48" fill="none" xmlns="http://www.w3.org/2000/svg">
<rect width="48" height="48" rx="8" fill="white" fill-opacity="0.5"/>
<rect x="0.5" y="0.5" width="47" height="47" rx="7.5" stroke="#141B34" stroke-opacity="0.2"/>
<path d="M25.8662 36.1823L28.5032 35.4757C29.5078 35.2065 29.9512 34.2664 29.5123 33.3815L28.5367 31.4568L23.8278 32.7186L23.9453 34.8732C23.9925 35.8026 24.9245 36.4346 25.8662 36.1823Z" stroke="#141B34" stroke-width="1.5" stroke-linecap="round" stroke-linejoin="round"/>
<path d="M28.5318 31.4461L29.8771 29.2255C30.6324 27.9844 30.4931 27.2969 29.3944 26.4197L25.0343 22.9138C24.12 22.1805 23.0213 22.4749 22.5961 23.5671L20.5731 28.7834C20.0603 30.0924 20.2505 30.8024 21.558 31.4546L23.8333 32.705" stroke="#141B34" stroke-width="1.5" stroke-linecap="round" stroke-linejoin="round"/>
<path d="M23.7421 23.0076L24.506 25.8587" stroke="#141B34" stroke-width="1.5" stroke-linecap="round" stroke-linejoin="round"/>
<path d="M22.4325 15.9661L21.3861 16.2465C20.8106 16.4007 20.2038 16.0197 20.0377 15.3999L19.7358 14.273C19.5697 13.6532 19.9047 13.0199 20.4803 12.8657L21.5267 12.5853C22.1022 12.4311 22.709 12.8121 22.8751 13.4319L23.177 14.5588C23.3431 15.1786 23.0081 15.8119 22.4325 15.9661Z" stroke="#141B34" stroke-width="1.5" stroke-linecap="round" stroke-linejoin="round"/>
<path d="M15.5215 28.8923L16.5679 28.6119C17.1435 28.4577 17.4785 27.8244 17.3124 27.2046L17.0104 26.0777C16.8444 25.4579 16.2376 25.0769 15.6621 25.2311L14.6156 25.5115C14.0401 25.6657 13.7051 26.299 13.8712 26.9189L14.1731 28.0458C14.3392 28.6656 14.946 29.0465 15.5215 28.8923Z" stroke="#141B34" stroke-width="1.5" stroke-linecap="round" stroke-linejoin="round"/>
<path d="M33.7886 23.9976L32.7422 24.278C32.1667 24.4322 31.5599 24.0513 31.3938 23.4315L31.0919 22.3046C30.9258 21.6848 31.2608 21.0514 31.8363 20.8972L32.8828 20.6168C33.4583 20.4626 34.0651 20.8436 34.2311 21.4634L34.5331 22.5903C34.6992 23.2101 34.3642 23.8434 33.7886 23.9976Z" stroke="#141B34" stroke-width="1.5" stroke-linecap="round" stroke-linejoin="round"/>
<path d="M19.903 14.9048C16.052 16.4801 13.9299 20.95 15.1166 25.3788" stroke="#141B34" stroke-width="1.5" stroke-linecap="round" stroke-linejoin="round"/>
<path d="M32.3804 20.753C31.1968 16.3355 27.148 13.5312 23.0402 14.0642" stroke="#141B34" stroke-width="1.5" stroke-linecap="round" stroke-linejoin="round"/>
</svg>
