<svg width="399" height="236" viewBox="0 0 399 236" fill="none" xmlns="http://www.w3.org/2000/svg">
<path d="M59.8 173.4L108.259 201.823C110.603 203.198 112.696 204.96 114.45 207.036L129.109 224.388C133.669 229.786 140.376 232.9 147.442 232.9H164.111C171.49 232.9 178.458 229.506 183.007 223.698L202.13 199.278C206.079 194.237 211.878 190.982 218.239 190.238L229.535 188.918C239.836 187.714 248.198 180.03 250.267 169.867L254.769 147.748C256.868 137.434 265.443 129.691 275.917 128.652L313.743 124.898C320.174 124.26 326.076 121.055 330.114 116.008L330.541 115.474C333.945 111.218 335.8 105.931 335.8 100.481V89.9" stroke="url(#paint0_linear_201_32507)" stroke-width="5" stroke-linecap="round"/>
<g filter="url(#filter0_d_201_32507)">
<rect x="19.8" y="112.9" width="80" height="80" rx="24.75" fill="url(#paint1_linear_201_32507)"/>
<rect x="21.15" y="114.25" width="77.3" height="77.3" rx="23.4" stroke="white" stroke-opacity="0.3" stroke-width="2.7"/>
<path d="M71.1669 153.82H47.8477C48.8629 152.484 50.4629 151.668 52.1749 151.668H55.1749C56.3989 152.636 57.8549 153.268 59.5029 153.268H59.5117C61.0157 153.268 62.4949 152.716 63.8309 151.668H66.8389C68.5509 151.668 70.1509 152.484 71.1669 153.82Z" fill="white"/>
<path d="M76.1003 155.445C75.6059 154.92 74.9091 154.618 74.1883 154.618H44.8267C44.1059 154.618 43.4091 154.92 42.9139 155.446C42.4123 155.98 42.1603 156.675 42.2051 157.404L42.9171 169.332C42.9955 170.659 44.0987 171.699 45.4283 171.699H73.5867C74.9155 171.699 76.0195 170.66 76.0987 169.332L76.8107 157.404C76.8555 156.674 76.6027 155.979 76.1003 155.445ZM59.5075 166.067C57.9315 166.067 56.6515 164.787 56.6515 163.211C56.6515 161.635 57.9315 160.355 59.5075 160.355C61.0835 160.355 62.3635 161.635 62.3635 163.211C62.3635 164.787 61.0835 166.067 59.5075 166.067Z" fill="white"/>
<path d="M67.5911 142.148C67.5911 143.268 67.3911 144.436 66.9911 145.628C66.9191 145.828 66.8471 146.036 66.7671 146.244C66.1591 147.796 65.1831 149.356 63.9351 150.524C62.6951 151.692 61.1831 152.468 59.5111 152.468H59.5031C56.1511 152.468 53.4791 149.348 52.2471 146.244C52.1671 146.036 52.0951 145.828 52.0231 145.62C51.6231 144.436 51.4231 143.268 51.4231 142.148C51.4231 141.86 51.4391 141.572 51.4711 141.284C51.5031 140.948 51.5591 140.62 51.6231 140.3C51.6391 140.236 51.6551 140.164 51.6711 140.1C51.7431 139.804 51.8231 139.516 51.9271 139.228C51.9351 139.204 51.9351 139.188 51.9431 139.164C52.6231 137.268 53.9351 135.716 55.5991 134.756C55.6471 134.724 55.7031 134.692 55.7511 134.668C55.8711 134.604 55.9991 134.54 56.1191 134.484C56.2151 134.436 56.3191 134.388 56.4231 134.34C56.5191 134.3 56.6151 134.26 56.7191 134.22C56.8471 134.172 56.9831 134.124 57.1191 134.084C57.1991 134.052 57.2791 134.028 57.3671 134.004C57.5191 133.964 57.6791 133.924 57.8391 133.892C57.9111 133.876 57.9831 133.852 58.0551 133.844C58.2311 133.804 58.4151 133.78 58.5911 133.764C58.6551 133.756 58.7111 133.748 58.7743 133.74C59.0151 133.716 59.2631 133.7 59.5031 133.7H59.5111C59.7591 133.7 59.9991 133.716 60.2391 133.74C60.3031 133.748 60.3591 133.756 60.4231 133.764C60.5991 133.78 60.7831 133.804 60.9591 133.844C61.0311 133.852 61.1031 133.868 61.1743 133.884C61.3351 133.924 61.4951 133.964 61.6471 134.004C61.7351 134.028 61.8151 134.052 61.8951 134.084C62.0311 134.124 62.1671 134.172 62.3031 134.22C62.3991 134.26 62.4951 134.3 62.5911 134.34L62.9031 134.484C63.0231 134.54 63.1431 134.604 63.2631 134.668C63.3111 134.692 63.3671 134.732 63.4231 134.756C65.0871 135.716 66.3831 137.268 67.0631 139.156C67.0791 139.188 67.0871 139.212 67.0951 139.244C67.1911 139.516 67.2711 139.804 67.3431 140.092C67.3591 140.164 67.3743 140.236 67.3911 140.308C67.4631 140.628 67.5191 140.956 67.5511 141.292C67.5743 141.572 67.5911 141.86 67.5911 142.148Z" fill="white"/>
</g>
<g filter="url(#filter1_d_201_32507)">
<rect x="298.8" y="9.90002" width="80" height="80" rx="24.75" fill="url(#paint2_linear_201_32507)"/>
<rect x="300.15" y="11.25" width="77.3" height="77.3" rx="23.4" stroke="white" stroke-opacity="0.3" stroke-width="2.7"/>
<g clip-path="url(#clip0_201_32507)">
<path d="M354.619 32.881C348.06 32.7634 340.58 36.192 335.845 41.5106C331.32 41.596 326.915 43.451 323.671 46.6948C323.482 46.881 323.415 47.1596 323.497 47.4116C323.581 47.665 323.8 47.8484 324.063 47.8862L329.458 48.659L328.792 49.4052C328.544 49.6824 328.557 50.1038 328.82 50.367L337.818 59.3648C337.954 59.5006 338.133 59.5692 338.313 59.5692C338.48 59.5692 338.647 59.5104 338.78 59.3914L339.526 58.725L340.299 64.1206C340.336 64.3838 340.544 64.577 340.794 64.661C340.859 64.682 340.926 64.6918 340.994 64.6918C341.193 64.6918 341.396 64.605 341.536 64.4664C344.735 61.2674 346.59 56.8616 346.676 52.3368C352 47.5922 355.456 40.1148 355.304 33.5642C355.294 33.1918 354.993 32.8908 354.619 32.881ZM348.168 44.9658C347.486 45.6476 346.59 45.9892 345.693 45.9892C344.795 45.9892 343.899 45.6476 343.218 44.9658C341.854 43.6008 341.854 41.3804 343.218 40.0154C344.583 38.6504 346.803 38.6504 348.168 40.0154C349.533 41.3804 349.533 43.6022 348.168 44.9658Z" fill="white"/>
<path d="M325.522 56.5667C324.024 58.0647 321.967 64.8323 321.737 65.5981C321.663 65.8445 321.732 66.1119 321.912 66.2939C322.047 66.4283 322.225 66.4997 322.408 66.4997C322.475 66.4997 322.542 66.4899 322.61 66.4703C323.375 66.2407 330.143 64.1841 331.641 62.6861C333.328 60.9991 333.328 58.2537 331.641 56.5667C329.953 54.8797 327.209 54.8811 325.522 56.5667Z" fill="white"/>
</g>
</g>
<rect x="142.8" y="141.602" width="48" height="48" rx="24" transform="rotate(-9.23401 142.8 141.602)" fill="white" fill-opacity="0.5"/>
<rect x="143.374" y="142.016" width="47" height="47" rx="23.5" transform="rotate(-9.23401 143.374 142.016)" stroke="#141B34" stroke-opacity="0.2"/>
<path d="M182.467 155.774H179.213C178.512 155.774 178.161 155.774 177.83 155.674C177.5 155.574 177.208 155.38 176.624 154.991C175.749 154.407 174.751 153.741 174.254 153.591C173.759 153.441 173.232 153.441 172.18 153.441C170.75 153.441 169.828 153.441 169.185 153.707C168.541 153.974 168.036 154.48 167.024 155.491L166.134 156.382C165.906 156.61 165.792 156.724 165.721 156.836C165.461 157.253 165.489 157.789 165.794 158.176C165.876 158.28 166.001 158.381 166.253 158.583C167.181 159.331 168.519 159.256 169.36 158.41L170.8 156.962H171.967L178.967 164.004C179.611 164.652 179.611 165.703 178.967 166.351C178.322 166.999 177.278 166.999 176.633 166.351L176.05 165.764M176.05 165.764L172.55 162.243M176.05 165.764C176.694 166.412 176.694 167.463 176.05 168.111C175.406 168.759 174.361 168.759 173.717 168.111L172.55 166.938M172.55 166.938C173.194 167.586 173.194 168.637 172.55 169.285C171.906 169.933 170.861 169.933 170.217 169.285L168.467 167.524M172.55 166.938L170.217 164.604M168.467 167.524L167.883 166.938M168.467 167.524C169.111 168.173 169.111 169.223 168.467 169.872C167.822 170.52 166.778 170.52 166.133 169.872L162.839 166.509C162.162 165.818 161.824 165.472 161.39 165.29C160.956 165.108 160.473 165.108 159.505 165.108H159.133" stroke="#141B34" stroke-width="1.5" stroke-linecap="round" stroke-linejoin="round"/>
<path d="M182.467 165.108H179.55" stroke="#141B34" stroke-width="1.5" stroke-linecap="round"/>
<path d="M166.717 155.774H159.133" stroke="#141B34" stroke-width="1.5" stroke-linecap="round"/>
<rect x="204.8" y="59.6031" width="48" height="48" rx="24" transform="rotate(-9.23401 204.8 59.6031)" fill="white" fill-opacity="0.5"/>
<rect x="205.374" y="60.0164" width="47" height="47" rx="23.5" transform="rotate(-9.23401 205.374 60.0164)" stroke="#141B34" stroke-opacity="0.2"/>
<path d="M242.117 75.0414L241.624 74.1848C241.251 73.537 241.064 73.2131 240.746 73.0839C240.429 72.9547 240.07 73.0567 239.351 73.2605L238.131 73.6042C237.672 73.71 237.191 73.65 236.773 73.4348L236.436 73.2404C236.077 73.0105 235.8 72.6714 235.647 72.2728L235.314 71.2754C235.094 70.6154 234.984 70.2854 234.723 70.0966C234.461 69.9078 234.114 69.9078 233.42 69.9078H232.305C231.611 69.9078 231.264 69.9078 231.002 70.0966C230.741 70.2854 230.631 70.6154 230.411 71.2754L230.078 72.2728C229.925 72.6714 229.648 73.0105 229.289 73.2404L228.952 73.4348C228.534 73.65 228.053 73.71 227.594 73.6042L226.374 73.2605C225.655 73.0567 225.296 72.9547 224.979 73.0839C224.661 73.2131 224.474 73.537 224.101 74.1848L223.608 75.0414C223.258 75.6487 223.083 75.9523 223.117 76.2755C223.151 76.5987 223.385 76.8592 223.853 77.3801L224.884 78.5328C225.136 78.8518 225.315 79.4078 225.315 79.9077C225.315 80.4078 225.136 80.9636 224.884 81.2827L223.853 82.4354C223.385 82.9564 223.151 83.2168 223.117 83.5401C223.083 83.8633 223.258 84.1669 223.608 84.7741L224.101 85.6307C224.474 86.2785 224.661 86.6025 224.979 86.7316C225.296 86.8608 225.655 86.7589 226.374 86.555L227.594 86.2113C228.053 86.1055 228.534 86.1656 228.953 86.3808L229.289 86.5752C229.648 86.8052 229.925 87.1442 230.077 87.5428L230.411 88.5403C230.631 89.2003 230.741 89.5303 231.002 89.7191C231.264 89.9078 231.611 89.9078 232.305 89.9078H233.42C234.114 89.9078 234.461 89.9078 234.723 89.7191C234.984 89.5303 235.094 89.2003 235.314 88.5403L235.648 87.5428C235.8 87.1442 236.076 86.8052 236.436 86.5752L236.772 86.3808C237.191 86.1656 237.672 86.1055 238.131 86.2113L239.351 86.555C240.07 86.7589 240.429 86.8608 240.746 86.7316C241.064 86.6025 241.251 86.2785 241.624 85.6307L242.117 84.7741C242.467 84.1669 242.642 83.8633 242.608 83.5401C242.574 83.2168 242.34 82.9564 241.872 82.4354L240.841 81.2827C240.589 80.9636 240.41 80.4078 240.41 79.9077C240.41 79.4078 240.589 78.8518 240.841 78.5328L241.872 77.3801C242.34 76.8592 242.574 76.5987 242.608 76.2755C242.642 75.9523 242.467 75.6487 242.117 75.0414Z" stroke="#141B34" stroke-width="1.5" stroke-linecap="round"/>
<path d="M236.319 79.9C236.319 81.833 234.752 83.4 232.819 83.4C230.886 83.4 229.32 81.833 229.32 79.9C229.32 77.967 230.886 76.4 232.819 76.4C234.752 76.4 236.319 77.967 236.319 79.9Z" stroke="#141B34" stroke-width="1.5"/>
<defs>
<filter id="filter0_d_201_32507" x="-1.14441e-05" y="103" width="119.6" height="119.6" filterUnits="userSpaceOnUse" color-interpolation-filters="sRGB">
<feFlood flood-opacity="0" result="BackgroundImageFix"/>
<feColorMatrix in="SourceAlpha" type="matrix" values="0 0 0 0 0 0 0 0 0 0 0 0 0 0 0 0 0 0 127 0" result="hardAlpha"/>
<feOffset dy="9.9"/>
<feGaussianBlur stdDeviation="9.9"/>
<feComposite in2="hardAlpha" operator="out"/>
<feColorMatrix type="matrix" values="0 0 0 0 0.764706 0 0 0 0 0.105882 0 0 0 0 0.713726 0 0 0 0.4 0"/>
<feBlend mode="normal" in2="BackgroundImageFix" result="effect1_dropShadow_201_32507"/>
<feBlend mode="normal" in="SourceGraphic" in2="effect1_dropShadow_201_32507" result="shape"/>
</filter>
<filter id="filter1_d_201_32507" x="279" y="2.47955e-05" width="119.6" height="119.6" filterUnits="userSpaceOnUse" color-interpolation-filters="sRGB">
<feFlood flood-opacity="0" result="BackgroundImageFix"/>
<feColorMatrix in="SourceAlpha" type="matrix" values="0 0 0 0 0 0 0 0 0 0 0 0 0 0 0 0 0 0 127 0" result="hardAlpha"/>
<feOffset dy="9.9"/>
<feGaussianBlur stdDeviation="9.9"/>
<feComposite in2="hardAlpha" operator="out"/>
<feColorMatrix type="matrix" values="0 0 0 0 0.764706 0 0 0 0 0.105882 0 0 0 0 0.713726 0 0 0 0.4 0"/>
<feBlend mode="normal" in2="BackgroundImageFix" result="effect1_dropShadow_201_32507"/>
<feBlend mode="normal" in="SourceGraphic" in2="effect1_dropShadow_201_32507" result="shape"/>
</filter>
<linearGradient id="paint0_linear_201_32507" x1="197.8" y1="89.9" x2="197.8" y2="232.9" gradientUnits="userSpaceOnUse">
<stop stop-color="#F72DE0"/>
<stop offset="1" stop-color="#A3119C"/>
</linearGradient>
<linearGradient id="paint1_linear_201_32507" x1="59.8" y1="112.9" x2="59.8" y2="192.9" gradientUnits="userSpaceOnUse">
<stop stop-color="#F72DE0"/>
<stop offset="1" stop-color="#A3119C"/>
</linearGradient>
<linearGradient id="paint2_linear_201_32507" x1="338.8" y1="9.90002" x2="338.8" y2="89.9" gradientUnits="userSpaceOnUse">
<stop stop-color="#F72DE0"/>
<stop offset="1" stop-color="#A3119C"/>
</linearGradient>
<clipPath id="clip0_201_32507">
<rect width="33.6" height="33.6" fill="white" transform="translate(321.708 32.8998)"/>
</clipPath>
</defs>
</svg>
