<svg width="48" height="48" viewBox="0 0 48 48" fill="none" xmlns="http://www.w3.org/2000/svg">
<rect width="48" height="48" rx="8" fill="white" fill-opacity="0.5"/>
<rect x="0.5" y="0.5" width="47" height="47" rx="7.5" stroke="#141B34" stroke-opacity="0.2"/>
<path d="M24.8289 18.0011C24.9397 17.688 24.9999 17.3511 24.9999 17.0001C24.9999 15.3433 23.6568 14.0001 21.9999 14.0001C20.343 14.0001 18.9999 15.3433 18.9999 17.0001C18.9999 17.3511 19.0602 17.688 19.1709 18.0011C16.8862 18.0094 15.6669 18.0905 14.8786 18.8788C14.0904 19.667 14.0092 20.8862 14.0009 23.1705C14.3134 23.0601 14.6496 23.0001 14.9999 23.0001C16.6568 23.0001 17.9999 24.3432 17.9999 26.0001C17.9999 27.657 16.6568 29.0001 14.9999 29.0001C14.6496 29.0001 14.3134 28.9401 14.0009 28.8297C14.0092 31.1141 14.0904 32.3332 14.8786 33.1214C15.6668 33.9096 16.8859 33.9908 19.1703 33.9991C19.0599 33.6866 18.9999 33.3504 18.9999 33.0001C18.9999 31.3432 20.343 30.0001 21.9999 30.0001C23.6568 30.0001 24.9999 31.3432 24.9999 33.0001C24.9999 33.3504 24.9399 33.6866 24.8296 33.9991C27.1139 33.9908 28.3331 33.9096 29.1213 33.1214C29.9095 32.3331 29.9906 31.1138 29.999 28.8291C30.312 28.9398 30.6489 29.0001 30.9999 29.0001C32.6568 29.0001 33.9999 27.657 33.9999 26.0001C33.9999 24.3432 32.6568 23.0001 30.9999 23.0001C30.6489 23.0001 30.312 23.0604 29.999 23.1711C29.9906 20.8864 29.9095 19.6671 29.1213 18.8788C28.333 18.0905 27.1137 18.0094 24.8289 18.0011Z" stroke="#141B34" stroke-width="1.5" stroke-linejoin="round"/>
</svg>
