<svg width="338" height="268" viewBox="0 0 338 268" fill="none" xmlns="http://www.w3.org/2000/svg">
<path d="M48.0018 131H127M211.5 131H290.5M232.5 244H202.5C193.663 244 186.5 236.837 186.5 228V169M103 244H132.5C141.337 244 148.5 236.837 148.5 228V169M103 25H132.5C141.337 25 148.5 32.1634 148.5 41V83M232.502 25H202.5C193.663 25 186.5 32.1634 186.5 41V83" stroke="#94A4BA" stroke-opacity="0.8" stroke-linecap="round" stroke-dasharray="3 3"/>
<rect x="55" width="48" height="48" rx="8" fill="white" fill-opacity="0.5"/>
<rect x="55.5" y="0.5" width="47" height="47" rx="7.5" stroke="#141B34" stroke-opacity="0.2"/>
<path d="M84.4782 20.0003C84.4856 20.0003 84.4931 20.0002 84.5006 20.0002C86.9859 20.0002 89.0006 22.0149 89.0006 24.5002C89.0006 26.4595 87.7484 28.1264 86.0006 28.7441M84.4782 20.0003C84.493 19.8356 84.5006 19.6688 84.5006 19.5002C84.5006 16.4627 82.0382 14.0002 79.0006 14.0002C76.1239 14.0002 73.7629 16.2089 73.521 19.0229M84.4782 20.0003C84.3759 21.1347 83.9292 22.1698 83.2434 23.0002M73.521 19.0229C70.9846 19.2643 69.0006 21.4006 69.0006 24.0002C69.0006 26.0505 70.2347 27.8126 72.0006 28.5842M73.521 19.0229C73.6789 19.0079 73.8388 19.0002 74.0006 19.0002C75.1264 19.0002 76.1654 19.3723 77.0011 20.0002" stroke="#141B34" stroke-width="1.5" stroke-linecap="round" stroke-linejoin="round"/>
<path d="M85.2506 33.2502L83.0006 31.0002L83.0006 29.0002M85.2506 32.5002C84.8364 32.5002 84.5006 32.836 84.5006 33.2502C84.5006 33.6644 84.8364 34.0002 85.2506 34.0002C85.6648 34.0002 86.0006 33.6644 86.0006 33.2502C86.0006 32.836 85.6648 32.5002 85.2506 32.5002Z" stroke="#141B34" stroke-width="1.5" stroke-linecap="round" stroke-linejoin="round"/>
<path d="M72.7506 33.2502L75.0006 31.0002L75.0006 29.0002M72.7506 32.5002C73.1648 32.5002 73.5006 32.836 73.5006 33.2502C73.5006 33.6644 73.1648 34.0002 72.7506 34.0002C72.3364 34.0002 72.0006 33.6644 72.0006 33.2502C72.0006 32.836 72.3364 32.5002 72.7506 32.5002Z" stroke="#141B34" stroke-width="1.5" stroke-linecap="round" stroke-linejoin="round"/>
<path d="M79.0006 33.2502L79.0006 29.0002M79.0006 32.5002C78.5864 32.5002 78.2506 32.836 78.2506 33.2502C78.2506 33.6644 78.5864 34.0002 79.0006 34.0002C79.4148 34.0002 79.7506 33.6644 79.7506 33.2502C79.7506 32.836 79.4148 32.5002 79.0006 32.5002Z" stroke="#141B34" stroke-width="1.5" stroke-linecap="round" stroke-linejoin="round"/>
<rect x="232" width="48" height="48" rx="8" fill="white" fill-opacity="0.5"/>
<rect x="232.5" y="0.5" width="47" height="47" rx="7.5" stroke="#141B34" stroke-opacity="0.2"/>
<path d="M256.922 14.2608L263.432 17.7708C264.192 18.1808 264.192 19.3508 263.432 19.7608L256.922 23.2708C256.342 23.5808 255.662 23.5808 255.082 23.2708L248.572 19.7608C247.812 19.3508 247.812 18.1808 248.572 17.7708L255.082 14.2608C255.662 13.9508 256.342 13.9508 256.922 14.2608Z" stroke="#171717" stroke-width="1.5" stroke-linecap="round" stroke-linejoin="round"/>
<path d="M247.612 22.1309L253.662 25.1609C254.412 25.5409 254.892 26.3109 254.892 27.1509V32.8709C254.892 33.7009 254.022 34.2309 253.282 33.8609L247.232 30.8309C246.482 30.4509 246.002 29.6809 246.002 28.8409V23.1209C246.002 22.2909 246.872 21.7609 247.612 22.1309Z" stroke="#171717" stroke-width="1.5" stroke-linecap="round" stroke-linejoin="round"/>
<path d="M264.392 22.1309L258.342 25.1609C257.592 25.5409 257.112 26.3109 257.112 27.1509V32.8709C257.112 33.7009 257.982 34.2309 258.722 33.8609L264.772 30.8309C265.522 30.4509 266.002 29.6809 266.002 28.8409V23.1209C266.002 22.2909 265.132 21.7609 264.392 22.1309Z" stroke="#171717" stroke-width="1.5" stroke-linecap="round" stroke-linejoin="round"/>
<rect y="108" width="48" height="48" rx="8" fill="white" fill-opacity="0.5"/>
<rect x="0.5" y="108.5" width="47" height="47" rx="7.5" stroke="#141B34" stroke-opacity="0.2"/>
<path d="M25.8663 144.182L28.5033 143.476C29.5078 143.207 29.9513 142.266 29.5123 141.382L28.5367 139.457L23.8278 140.719L23.9453 142.873C23.9925 143.803 24.9245 144.435 25.8663 144.182Z" stroke="#141B34" stroke-width="1.5" stroke-linecap="round" stroke-linejoin="round"/>
<path d="M28.5318 139.446L29.8771 137.225C30.6324 135.984 30.4931 135.297 29.3945 134.42L25.0343 130.914C24.12 130.18 23.0213 130.475 22.5962 131.567L20.5731 136.783C20.0603 138.092 20.2505 138.802 21.558 139.455L23.8334 140.705" stroke="#141B34" stroke-width="1.5" stroke-linecap="round" stroke-linejoin="round"/>
<path d="M23.7422 131.008L24.5061 133.859" stroke="#141B34" stroke-width="1.5" stroke-linecap="round" stroke-linejoin="round"/>
<path d="M22.4326 123.966L21.3862 124.246C20.8106 124.401 20.2039 124.02 20.0378 123.4L19.7358 122.273C19.5697 121.653 19.9048 121.02 20.4803 120.866L21.5267 120.585C22.1022 120.431 22.709 120.812 22.8751 121.432L23.177 122.559C23.3431 123.179 23.0081 123.812 22.4326 123.966Z" stroke="#141B34" stroke-width="1.5" stroke-linecap="round" stroke-linejoin="round"/>
<path d="M15.5216 136.892L16.568 136.612C17.1436 136.458 17.4786 135.824 17.3125 135.205L17.0105 134.078C16.8445 133.458 16.2377 133.077 15.6621 133.231L14.6157 133.511C14.0402 133.666 13.7052 134.299 13.8713 134.919L14.1732 136.046C14.3393 136.666 14.9461 137.047 15.5216 136.892Z" stroke="#141B34" stroke-width="1.5" stroke-linecap="round" stroke-linejoin="round"/>
<path d="M33.7887 131.998L32.7423 132.278C32.1667 132.432 31.56 132.051 31.3939 131.432L31.0919 130.305C30.9258 129.685 31.2608 129.051 31.8364 128.897L32.8828 128.617C33.4583 128.463 34.0651 128.844 34.2312 129.463L34.5331 130.59C34.6992 131.21 34.3642 131.843 33.7887 131.998Z" stroke="#141B34" stroke-width="1.5" stroke-linecap="round" stroke-linejoin="round"/>
<path d="M19.9031 122.905C16.0521 124.48 13.93 128.95 15.1167 133.379" stroke="#141B34" stroke-width="1.5" stroke-linecap="round" stroke-linejoin="round"/>
<path d="M32.3805 128.753C31.1969 124.335 27.1481 121.531 23.0403 122.064" stroke="#141B34" stroke-width="1.5" stroke-linecap="round" stroke-linejoin="round"/>
<rect x="289.395" y="108" width="48" height="48" rx="8" fill="white" fill-opacity="0.5"/>
<rect x="289.895" y="108.5" width="47" height="47" rx="7.5" stroke="#141B34" stroke-opacity="0.2"/>
<g clip-path="url(#clip0_201_32504)">
<path d="M317.284 138.736L320.466 144.248" stroke="#141B34" stroke-width="1.5" stroke-linecap="round" stroke-linejoin="round"/>
<path d="M321.381 133.105C322.668 128.304 319.819 123.369 315.017 122.082C310.216 120.796 305.281 123.645 303.995 128.446C302.708 133.247 305.557 138.182 310.359 139.469C315.16 140.755 320.095 137.906 321.381 133.105Z" stroke="#141B34" stroke-width="1.5" stroke-linejoin="round"/>
<path d="M316.457 130.233L317.14 131.237C317.428 131.659 317.571 131.87 317.518 132.07C317.464 132.27 317.234 132.381 316.774 132.603L315.681 133.13" stroke="#141B34" stroke-width="1.5" stroke-linecap="round" stroke-linejoin="round"/>
<path d="M309.696 128.421L308.602 128.949C308.142 129.17 307.912 129.281 307.858 129.481C307.805 129.682 307.948 129.893 308.236 130.315L308.919 131.319" stroke="#141B34" stroke-width="1.5" stroke-linecap="round" stroke-linejoin="round"/>
<path d="M314.301 128.62L311.075 132.932" stroke="#141B34" stroke-width="1.5" stroke-linecap="round" stroke-linejoin="round"/>
</g>
<rect x="232" y="220" width="48" height="48" rx="8" fill="white" fill-opacity="0.5"/>
<rect x="232.5" y="220.5" width="47" height="47" rx="7.5" stroke="#141B34" stroke-opacity="0.2"/>
<path d="M256.001 240.002C260.419 240.002 264.001 238.658 264.001 237.002C264.001 235.345 260.419 234.002 256.001 234.002C251.583 234.002 248.001 235.345 248.001 237.002C248.001 238.658 251.583 240.002 256.001 240.002Z" stroke="#141B34" stroke-width="1.5"/>
<path d="M251.001 242.844C251.602 243.025 252.275 243.173 253.001 243.284" stroke="#141B34" stroke-width="1.5" stroke-linecap="round"/>
<path d="M264.001 244.002C264.001 245.658 260.419 247.002 256.001 247.002C251.583 247.002 248.001 245.658 248.001 244.002" stroke="#141B34" stroke-width="1.5"/>
<path d="M251.001 249.844C251.602 250.025 252.275 250.173 253.001 250.284" stroke="#141B34" stroke-width="1.5" stroke-linecap="round"/>
<path d="M264.001 237.002V251.002C264.001 252.658 260.419 254.002 256.001 254.002C251.583 254.002 248.001 252.658 248.001 251.002V237.002" stroke="#141B34" stroke-width="1.5"/>
<rect x="55" y="220" width="48" height="48" rx="8" fill="white" fill-opacity="0.5"/>
<rect x="55.5" y="220.5" width="47" height="47" rx="7.5" stroke="#141B34" stroke-opacity="0.2"/>
<path d="M79.8288 238.001C79.9396 237.688 79.9998 237.351 79.9998 237C79.9998 235.343 78.6567 234 76.9999 234C75.343 234 73.9999 235.343 73.9999 237C73.9999 237.351 74.0601 237.688 74.1709 238.001C71.8861 238.009 70.6668 238.091 69.8785 238.879C69.0903 239.667 69.0092 240.886 69.0008 243.171C69.3133 243.06 69.6496 243 69.9999 243C71.6567 243 72.9999 244.343 72.9999 246C72.9999 247.657 71.6567 249 69.9999 249C69.6496 249 69.3133 248.94 69.0008 248.83C69.0092 251.114 69.0903 252.333 69.8785 253.121C70.6668 253.91 71.8859 253.991 74.1702 253.999C74.0599 253.687 73.9999 253.35 73.9999 253C73.9999 251.343 75.343 250 76.9999 250C78.6567 250 79.9998 251.343 79.9998 253C79.9998 253.35 79.9398 253.687 79.8295 253.999C82.1138 253.991 83.333 253.91 84.1212 253.121C84.9094 252.333 84.9905 251.114 84.9989 248.829C85.3119 248.94 85.6488 249 85.9998 249C87.6567 249 88.9998 247.657 88.9998 246C88.9998 244.343 87.6567 243 85.9998 243C85.6488 243 85.3119 243.06 84.9989 243.171C84.9905 240.886 84.9094 239.667 84.1212 238.879C83.3329 238.091 82.1136 238.009 79.8288 238.001Z" stroke="#141B34" stroke-width="1.5" stroke-linejoin="round"/>
<g filter="url(#filter0_d_201_32504)">
<rect x="124" y="83" width="90" height="90" rx="24.75" fill="url(#paint0_linear_201_32504)"/>
<rect x="125.35" y="84.35" width="87.3" height="87.3" rx="23.4" stroke="white" stroke-opacity="0.3" stroke-width="2.7"/>
<path d="M171.127 145.265C171.857 145.176 172.222 145.132 172.597 144.899C172.896 144.713 173.208 144.361 173.356 144.042C173.542 143.642 173.542 143.207 173.542 142.338V99.5594C173.542 98.4393 173.542 97.8792 173.324 97.4514C173.132 97.0751 172.826 96.7691 172.45 96.5774C172.022 96.3594 171.462 96.3594 170.342 96.3594H167.661C166.541 96.3594 165.981 96.3594 165.553 96.5774C165.177 96.7691 164.871 97.0751 164.679 97.4514C164.461 97.8792 164.461 98.4393 164.461 99.5594V142.338C164.461 143.207 164.461 143.642 164.647 144.043C164.795 144.361 165.107 144.713 165.405 144.899C165.781 145.132 166.146 145.176 166.876 145.265C167.573 145.35 168.282 145.394 169.001 145.394C169.721 145.394 170.43 145.35 171.127 145.265ZM167.862 100.089H170.137C170.5 100.089 170.795 100.384 170.795 100.75C170.795 101.113 170.5 101.408 170.137 101.408H167.862C167.499 101.408 167.204 101.113 167.204 100.75C167.204 100.384 167.499 100.089 167.862 100.089ZM167.862 105.28H170.137C170.5 105.28 170.795 105.575 170.795 105.941C170.795 106.304 170.5 106.599 170.137 106.599H167.862C167.499 106.599 167.204 106.304 167.204 105.941C167.204 105.575 167.499 105.28 167.862 105.28ZM167.862 110.471H170.137C170.5 110.471 170.795 110.766 170.795 111.132C170.795 111.495 170.5 111.79 170.137 111.79H167.862C167.499 111.79 167.204 111.495 167.204 111.132C167.204 110.766 167.499 110.471 167.862 110.471ZM167.862 115.661H170.137C170.5 115.661 170.795 115.957 170.795 116.323C170.795 116.685 170.5 116.981 170.137 116.981H167.862C167.499 116.981 167.204 116.685 167.204 116.323C167.204 115.957 167.499 115.661 167.862 115.661ZM167.862 120.852H170.137C170.5 120.852 170.795 121.147 170.795 121.514C170.795 121.876 170.5 122.171 170.137 122.171H167.862C167.499 122.171 167.204 121.876 167.204 121.514C167.204 121.147 167.499 120.852 167.862 120.852ZM167.204 126.704C167.204 126.338 167.499 126.047 167.862 126.047H170.137C170.5 126.047 170.795 126.338 170.795 126.704C170.795 127.067 170.5 127.362 170.137 127.362H167.862C167.499 127.362 167.204 127.067 167.204 126.704ZM177.832 117.377C177.832 116.803 178.297 116.338 178.871 116.338C179.445 116.338 179.91 116.803 179.91 117.377V119.32C179.91 119.894 179.445 120.359 178.871 120.359C178.297 120.359 177.832 119.894 177.832 119.32V117.377ZM177.832 127.538C177.832 126.964 178.297 126.499 178.871 126.499C179.445 126.499 179.91 126.964 179.91 127.538V129.481C179.91 130.055 179.445 130.52 178.871 130.52C178.297 130.52 177.832 130.055 177.832 129.481V127.538ZM181.865 139.812C182.112 139.548 182.235 139.416 182.349 139.221C182.441 139.062 182.528 138.842 182.569 138.663C182.619 138.442 182.619 138.23 182.619 137.806V114.369C182.619 113.249 182.619 112.689 182.401 112.261C182.21 111.885 181.904 111.579 181.527 111.387C181.099 111.169 180.539 111.169 179.419 111.169H178.323C177.203 111.169 176.643 111.169 176.215 111.387C175.838 111.579 175.532 111.885 175.341 112.261C175.123 112.689 175.123 113.249 175.123 114.369V139.699C175.123 141.128 175.123 141.843 175.538 142.382C175.855 142.794 176.524 143.14 177.043 143.16C177.724 143.187 178.209 142.844 179.179 142.156C180.152 141.467 181.052 140.681 181.865 139.812ZM181.229 131.178C181.229 131.544 180.934 131.839 180.568 131.839H177.174C176.812 131.839 176.517 131.544 176.517 131.178V125.837C176.517 125.475 176.812 125.18 177.174 125.18H180.568C180.934 125.18 181.229 125.475 181.229 125.837V131.178ZM181.229 121.02C181.229 121.383 180.934 121.678 180.568 121.678H177.174C176.812 121.678 176.517 121.383 176.517 121.02V115.68C176.517 115.314 176.812 115.019 177.174 115.019H180.568C180.934 115.019 181.229 115.314 181.229 115.68V121.02ZM159.023 129.003C159.597 129.003 160.062 129.468 160.062 130.042C160.062 130.615 159.597 131.08 159.023 131.08H156.419C155.845 131.08 155.38 130.615 155.38 130.042C155.38 129.468 155.845 129.003 156.419 129.003H159.023ZM155.38 135.596C155.38 134.476 155.38 133.916 155.598 133.488C155.789 133.112 156.095 132.806 156.472 132.614C156.9 132.396 157.46 132.396 158.58 132.396H160.72C161.083 132.396 161.378 132.101 161.378 131.738V128.345C161.378 127.979 161.083 127.683 160.72 127.683H156.204C155.749 127.683 155.38 127.315 155.38 126.859C155.38 126.404 155.749 126.036 156.204 126.036H160.72C161.083 126.036 161.378 125.74 161.378 125.378V121.984C161.378 121.618 161.083 121.323 160.72 121.323H157.152C156.173 121.323 155.38 120.53 155.38 119.551C155.38 118.992 155.644 118.465 156.092 118.131L157.766 116.881C159.413 115.652 160.236 115.038 160.925 115.053C161.524 115.066 162.086 115.348 162.456 115.821C162.88 116.363 162.88 117.391 162.88 119.446V139.699C162.88 141.128 162.88 141.843 162.465 142.382C162.148 142.794 161.479 143.14 160.96 143.16C160.28 143.187 159.794 142.844 158.824 142.157C157.851 141.467 156.95 140.681 156.136 139.812C155.889 139.548 155.765 139.416 155.651 139.22C155.559 139.062 155.472 138.842 155.431 138.663C155.38 138.441 155.38 138.229 155.38 137.805V135.596ZM159.023 122.642C159.597 122.642 160.062 123.107 160.062 123.681C160.062 124.255 159.597 124.72 159.023 124.72H156.419C155.845 124.72 155.38 124.255 155.38 123.681C155.38 123.107 155.845 122.642 156.419 122.642H159.023ZM198.816 128.001C199.823 128.001 200.645 128.818 200.588 129.824C200.556 130.394 200.509 130.964 200.445 131.533C200.37 132.205 199.81 132.706 199.133 132.706H196.532C195.905 132.706 195.378 133.132 195.243 133.745C194.574 136.806 193.367 139.777 191.618 142.497C191.282 143.028 191.353 143.701 191.798 144.145L193.636 145.984C194.114 146.462 194.156 147.213 193.733 147.74C193.005 148.652 192.22 149.53 191.375 150.375C190.531 151.219 189.649 152.004 188.741 152.733C188.214 153.155 187.459 153.114 186.984 152.636L185.146 150.797C184.701 150.353 184.028 150.282 183.497 150.622C180.777 152.371 177.806 153.578 174.741 154.243C174.129 154.377 173.706 154.904 173.706 155.532V158.133C173.706 158.81 173.202 159.37 172.533 159.445C170.186 159.707 167.817 159.707 165.47 159.445C164.797 159.37 164.296 158.81 164.296 158.133V155.532C164.296 154.904 163.87 154.377 163.257 154.243C160.193 153.578 157.226 152.371 154.501 150.622C153.974 150.281 153.302 150.353 152.857 150.797L151.019 152.636C150.54 153.114 149.789 153.155 149.262 152.733C148.35 152.004 147.468 151.22 146.627 150.375C145.783 149.53 144.994 148.652 144.266 147.74C143.847 147.213 143.888 146.462 144.366 145.984L146.205 144.145C146.646 143.701 146.721 143.028 146.381 142.501C144.632 139.777 143.425 136.806 142.759 133.745C142.625 133.132 142.098 132.706 141.47 132.706H138.865C138.193 132.706 137.632 132.205 137.557 131.533C137.494 130.965 137.446 130.396 137.413 129.826C137.354 128.819 138.177 128.001 139.185 128.001C140.193 128.001 141.011 127.184 141.011 126.175V118.243C141.011 118.177 140.973 118.115 140.91 118.094C139.837 117.725 139.063 116.706 139.063 115.508C139.063 113.994 140.289 112.772 141.799 112.772C143.309 112.772 144.535 113.994 144.535 115.508C144.535 116.705 143.765 117.723 142.692 118.093C142.629 118.115 142.591 118.177 142.591 118.243V126.071C142.591 127.137 143.455 128.001 144.521 128.001C145.588 128.001 146.452 127.137 146.452 126.071V108.871C146.452 108.561 146.631 108.288 146.896 108.161L151.856 105.298C152.289 105.048 152.465 104.527 152.465 104.028C152.465 102.518 153.69 101.292 155.2 101.292C156.71 101.292 157.936 102.518 157.936 104.028C157.936 105.538 156.71 106.763 155.2 106.763C153.677 106.763 152.916 106.763 152.825 106.772C152.301 106.819 152.646 106.727 152.168 106.947C152.085 106.986 152.027 107.019 151.91 107.087L149.632 108.403C149.049 108.74 148.758 108.908 148.546 109.143C148.358 109.352 148.217 109.597 148.13 109.863C148.032 110.165 148.032 110.501 148.032 111.174V127.114C148.032 127.604 148.43 128.001 148.92 128.001C149.406 128.001 149.799 128.393 149.827 128.878C150.403 138.97 158.765 146.974 169.001 146.974C179.215 146.974 187.562 139.005 188.172 128.944C188.203 128.422 188.627 128.001 189.149 128.001C189.677 128.001 190.104 127.574 190.104 127.046V111.175C190.104 110.502 190.104 110.165 190.007 109.864C189.92 109.597 189.778 109.352 189.591 109.144C189.379 108.908 189.087 108.74 188.504 108.403L186.224 107.087C186.106 107.019 186.047 106.985 185.964 106.947C185.487 106.727 185.832 106.82 185.309 106.772C185.218 106.763 184.456 106.763 182.933 106.763C181.423 106.763 180.197 105.541 180.197 104.028C180.197 102.514 181.423 101.292 182.933 101.292C184.443 101.292 185.669 102.518 185.669 104.028C185.669 104.527 185.845 105.047 186.277 105.297L191.24 108.161C191.502 108.288 191.685 108.561 191.685 108.871V126.14C191.685 127.168 192.518 128.001 193.546 128.001C194.574 128.001 195.407 127.168 195.407 126.14V120.501C195.407 120.272 195.407 120.844 195.392 120.722C195.35 120.382 195.422 120.73 195.326 120.401C195.291 120.283 194.757 119.054 193.689 116.595C193.544 116.262 193.464 115.894 193.464 115.508C193.464 113.995 194.69 112.773 196.2 112.773C197.709 112.773 198.935 113.995 198.935 115.508C198.935 115.894 198.855 116.262 198.71 116.595C197.642 119.054 197.108 120.284 197.074 120.402C196.977 120.73 197.049 120.382 197.007 120.722C196.992 120.844 196.992 120.272 196.992 120.501V126.177C196.992 127.185 197.808 128.001 198.816 128.001Z" fill="white"/>
</g>
<defs>
<filter id="filter0_d_201_32504" x="104.2" y="73.1" width="129.6" height="129.6" filterUnits="userSpaceOnUse" color-interpolation-filters="sRGB">
<feFlood flood-opacity="0" result="BackgroundImageFix"/>
<feColorMatrix in="SourceAlpha" type="matrix" values="0 0 0 0 0 0 0 0 0 0 0 0 0 0 0 0 0 0 127 0" result="hardAlpha"/>
<feOffset dy="9.9"/>
<feGaussianBlur stdDeviation="9.9"/>
<feComposite in2="hardAlpha" operator="out"/>
<feColorMatrix type="matrix" values="0 0 0 0 0.764706 0 0 0 0 0.105882 0 0 0 0 0.713726 0 0 0 0.4 0"/>
<feBlend mode="normal" in2="BackgroundImageFix" result="effect1_dropShadow_201_32504"/>
<feBlend mode="normal" in="SourceGraphic" in2="effect1_dropShadow_201_32504" result="shape"/>
</filter>
<linearGradient id="paint0_linear_201_32504" x1="169" y1="83" x2="169" y2="173" gradientUnits="userSpaceOnUse">
<stop stop-color="#F72DE0"/>
<stop offset="1" stop-color="#A3119C"/>
</linearGradient>
<clipPath id="clip0_201_32504">
<rect width="24" height="24" fill="white" transform="translate(304.91 117.303) rotate(15)"/>
</clipPath>
</defs>
</svg>
