<svg width="130" height="130" viewBox="0 0 130 130" fill="none" xmlns="http://www.w3.org/2000/svg">
<g filter="url(#filter0_d_118_10305)">
<rect x="19.8" y="9.90002" width="90" height="90" rx="24.75" fill="url(#paint0_linear_118_10305)"/>
<rect x="21.15" y="11.25" width="87.3" height="87.3" rx="23.4" stroke="white" stroke-opacity="0.3" stroke-width="2.7"/>
<path d="M66.9273 72.1649C67.6572 72.0762 68.0222 72.0318 68.3975 71.7986C68.6963 71.613 69.0077 71.2614 69.1558 70.9425C69.3421 70.5417 69.3421 70.1072 69.3421 69.2381V26.4594C69.3421 25.3393 69.3421 24.7792 69.1241 24.3514C68.9323 23.9751 68.6264 23.6691 68.25 23.4774C67.8222 23.2594 67.2622 23.2594 66.1421 23.2594H63.4609C62.3408 23.2594 61.7808 23.2594 61.353 23.4774C60.9766 23.6691 60.6707 23.9751 60.4789 24.3514C60.2609 24.7792 60.2609 25.3393 60.2609 26.4594V69.238C60.2609 70.1072 60.2609 70.5418 60.4472 70.9425C60.5954 71.2615 60.9067 71.613 61.2055 71.7987C61.5809 72.0319 61.9459 72.0762 62.676 72.165C63.3728 72.2497 64.0821 72.2937 64.8015 72.2937C65.521 72.2937 66.2303 72.2497 66.9273 72.1649ZM63.6616 26.9889H65.9375C66.3001 26.9889 66.5953 27.2841 66.5953 27.6503C66.5953 28.0129 66.3001 28.3081 65.9375 28.3081H63.6616C63.2991 28.3081 63.0039 28.0129 63.0039 27.6503C63.0039 27.2841 63.2991 26.9889 63.6616 26.9889ZM63.6616 32.1798H65.9375C66.3001 32.1798 66.5953 32.475 66.5953 32.8412C66.5953 33.2038 66.3001 33.499 65.9375 33.499H63.6616C63.2991 33.499 63.0039 33.2038 63.0039 32.8412C63.0039 32.475 63.2991 32.1798 63.6616 32.1798ZM63.6616 37.3706H65.9375C66.3001 37.3706 66.5953 37.6658 66.5953 38.032C66.5953 38.3946 66.3001 38.6897 65.9375 38.6897H63.6616C63.2991 38.6897 63.0039 38.3946 63.0039 38.032C63.0039 37.6658 63.2991 37.3706 63.6616 37.3706ZM63.6616 42.5614H65.9375C66.3001 42.5614 66.5953 42.8565 66.5953 43.2229C66.5953 43.5855 66.3001 43.8806 65.9375 43.8806H63.6616C63.2991 43.8806 63.0039 43.5855 63.0039 43.2229C63.0039 42.8567 63.2991 42.5614 63.6616 42.5614ZM63.6616 47.7521H65.9375C66.3001 47.7521 66.5953 48.0473 66.5953 48.4137C66.5953 48.7762 66.3001 49.0714 65.9375 49.0714H63.6616C63.2991 49.0714 63.0039 48.7761 63.0039 48.4137C63.0039 48.0475 63.2991 47.7521 63.6616 47.7521ZM63.0039 53.6045C63.0039 53.2382 63.2991 52.9467 63.6616 52.9467H65.9375C66.3001 52.9467 66.5953 53.2382 66.5953 53.6045C66.5953 53.967 66.3001 54.2622 65.9375 54.2622H63.6616C63.2991 54.2622 63.0039 53.967 63.0039 53.6045ZM73.6321 44.2767C73.6321 43.703 74.0973 43.2378 74.6711 43.2378C75.2449 43.2378 75.71 43.703 75.71 44.2767V46.22C75.71 46.7938 75.2449 47.2589 74.6711 47.2589C74.0973 47.2589 73.6321 46.7938 73.6321 46.22V44.2767ZM73.6321 54.4379C73.6321 53.8641 74.0973 53.3989 74.6711 53.3989C75.2449 53.3989 75.71 53.8641 75.71 54.4379V56.381C75.71 56.9548 75.2449 57.4199 74.6711 57.4199C74.0973 57.4199 73.6321 56.9548 73.6321 56.381V54.4379ZM77.6651 66.7116C77.9115 66.4482 78.0348 66.3164 78.1486 66.1205C78.2408 65.9619 78.3276 65.7419 78.3687 65.5631C78.4194 65.3422 78.4194 65.1302 78.4194 64.7062V41.2693C78.4194 40.1492 78.4194 39.5892 78.2014 39.1613C78.0096 38.785 77.7037 38.4791 77.3273 38.2873C76.8995 38.0693 76.3395 38.0693 75.2194 38.0693H74.1228C73.0027 38.0693 72.4426 38.0693 72.0148 38.2873C71.6385 38.4791 71.3325 38.785 71.1408 39.1613C70.9228 39.5892 70.9228 40.1492 70.9228 41.2693V66.5988C70.9228 68.028 70.9228 68.7427 71.3381 69.2821C71.6554 69.6941 72.3237 70.0397 72.8433 70.0603C73.5236 70.0874 74.0086 69.7437 74.9786 69.0564C75.952 68.3668 76.8522 67.5807 77.6651 66.7116ZM77.0292 58.0777C77.0292 58.4439 76.734 58.7392 76.3677 58.7392H72.9744C72.6119 58.7392 72.3167 58.444 72.3167 58.0777V52.7374C72.3167 52.3748 72.6119 52.0797 72.9744 52.0797H76.3677C76.734 52.0797 77.0292 52.3748 77.0292 52.7374V58.0777ZM77.0292 47.9204C77.0292 48.2829 76.734 48.5781 76.3677 48.5781H72.9744C72.6119 48.5781 72.3167 48.2829 72.3167 47.9204V42.5801C72.3167 42.2138 72.6119 41.9187 72.9744 41.9187H76.3677C76.734 41.9187 77.0292 42.2138 77.0292 42.5801V47.9204ZM54.8235 55.9028C55.3972 55.9028 55.8624 56.3679 55.8624 56.9416C55.8624 57.5154 55.3972 57.9805 54.8235 57.9805H52.2187C51.6449 57.9805 51.1798 57.5154 51.1798 56.9416C51.1798 56.3679 51.6449 55.9028 52.2187 55.9028H54.8235ZM51.1798 62.496C51.1798 61.3759 51.1798 60.8158 51.3978 60.388C51.5895 60.0117 51.8955 59.7057 52.2718 59.514C52.6997 59.296 53.2597 59.296 54.3798 59.296H56.5201C56.8826 59.296 57.1778 59.0008 57.1778 58.6382V55.245C57.1778 54.8788 56.8826 54.5835 56.5201 54.5835H52.0038C51.5487 54.5835 51.1798 54.2146 51.1798 53.7595C51.1798 53.3044 51.5487 52.9355 52.0038 52.9355H56.5201C56.8826 52.9355 57.1778 52.6402 57.1778 52.2778V48.8845C57.1778 48.5184 56.8826 48.2231 56.5201 48.2231H52.952C51.9733 48.2231 51.1798 47.4296 51.1798 46.4509C51.1798 45.8916 51.4438 45.3652 51.892 45.0307L53.566 43.7812C55.2127 42.5521 56.036 41.9376 56.7249 41.953C57.3244 41.9665 57.8863 42.2482 58.2557 42.7206C58.6801 43.2635 58.6801 44.2908 58.6801 46.3456V66.5988C58.6801 68.028 58.6801 68.7427 58.2648 69.282C57.9476 69.6941 57.2794 70.0396 56.7598 70.0604C56.0796 70.0875 55.5945 69.7439 54.6242 69.0567C53.6506 68.3671 52.7498 67.5811 51.9358 66.7122C51.6887 66.4484 51.5651 66.3165 51.4511 66.1205C51.3587 65.9616 51.2717 65.7416 51.2306 65.5625C51.1798 65.3415 51.1798 65.1292 51.1798 64.7046V62.496ZM54.8234 49.5422C55.3972 49.5422 55.8624 50.0074 55.8624 50.5811C55.8624 51.1549 55.3972 51.6201 54.8234 51.6201H52.2187C51.645 51.6201 51.1798 51.1549 51.1798 50.5811C51.1798 50.0074 51.645 49.5422 52.2187 49.5422H54.8234ZM94.6158 54.9012C95.6231 54.9012 96.4453 55.7184 96.3885 56.7241C96.3563 57.2945 96.3087 57.8641 96.2453 58.4328C96.1705 59.1055 95.61 59.6062 94.9335 59.6062H92.3325C91.7047 59.6062 91.1778 60.0321 91.0432 60.645C90.3742 63.7057 89.1672 66.6767 87.4182 69.3972C87.0819 69.9279 87.1528 70.6006 87.5976 71.0453L89.4362 72.8839C89.9145 73.3623 89.9557 74.1134 89.5334 74.6403C88.8046 75.5523 88.0199 76.4304 87.1752 77.275C86.3307 78.1195 85.4487 78.9043 84.5406 79.6331C84.0137 80.0554 83.2588 80.0142 82.7842 79.5359L80.9456 77.6974C80.5009 77.2525 79.8282 77.1816 79.2975 77.5216C76.577 79.2706 73.6059 80.4776 70.5415 81.1429C69.9286 81.2775 69.5063 81.8043 69.5063 82.4322V85.0332C69.5063 85.7097 69.0018 86.2703 68.3329 86.345C65.9859 86.6066 63.6167 86.6066 61.2697 86.345C60.5971 86.2703 60.0963 85.7097 60.0963 85.0332V82.4322C60.0963 81.8043 59.6702 81.2775 59.0574 81.1429C55.993 80.4778 53.0258 79.2706 50.3014 77.5216C49.7744 77.1815 49.1018 77.2525 48.6571 77.6974L46.8186 79.5359C46.3403 80.0142 45.589 80.0554 45.0621 79.6331C44.1502 78.9043 43.2683 78.1196 42.4275 77.275C41.583 76.4304 40.7944 75.5521 40.0656 74.6403C39.6471 74.1134 39.6882 73.3623 40.1665 72.8839L42.0051 71.0453C42.4461 70.6006 42.5208 69.9279 42.1807 69.4009C40.4318 66.6767 39.2247 63.7056 38.5594 60.6449C38.425 60.032 37.898 59.606 37.2702 59.606H34.6654C33.9928 59.606 33.4322 59.1053 33.3574 58.4327C33.2941 57.8646 33.2457 57.2955 33.2126 56.7257C33.1541 55.7191 33.9768 54.9011 34.985 54.9011C35.9933 54.9011 36.8106 54.0837 36.8106 53.0755V45.1435C36.8106 45.0775 36.7727 45.0155 36.7103 44.994C35.6366 44.6246 34.8635 43.6064 34.8635 42.4079C34.8635 40.8944 36.0893 39.6723 37.5991 39.6723C39.1089 39.6723 40.3347 40.8944 40.3347 42.4079C40.3347 43.6055 39.5654 44.6231 38.492 44.9931C38.4294 45.0147 38.3913 45.0771 38.3913 45.1434V52.9707C38.3913 54.0368 39.2555 54.9009 40.3215 54.9009C41.3876 54.9009 42.2518 54.0368 42.2518 52.9707V35.771C42.2518 35.4608 42.4312 35.188 42.6964 35.061L47.6565 32.1977C48.0889 31.9481 48.2647 31.427 48.2647 30.9278C48.2647 29.418 49.4905 28.1922 51.0003 28.1922C52.51 28.1922 53.7358 29.418 53.7358 30.9278C53.7358 32.4376 52.51 33.6632 51.0003 33.6632C49.4771 33.6632 48.7156 33.6632 48.6246 33.6715C48.1008 33.7195 48.446 33.6269 47.9684 33.8475C47.8855 33.8857 47.8271 33.9195 47.7102 33.987L45.4319 35.303C44.8492 35.6396 44.5579 35.8079 44.346 36.0433C44.1585 36.2516 44.0169 36.4969 43.9303 36.7634C43.8325 37.0646 43.8325 37.4011 43.8325 38.074V54.0138C43.8325 54.5038 44.2297 54.9011 44.7198 54.9011C45.2057 54.9011 45.599 55.2926 45.6267 55.7777C46.2034 65.8698 54.5649 73.8742 64.8012 73.8742C75.0151 73.8742 83.3625 65.9049 83.9718 55.8441C84.0035 55.3222 84.4266 54.9011 84.9495 54.9011C85.4769 54.9011 85.9045 54.4735 85.9045 53.9461V38.075C85.9045 37.4018 85.9045 37.0652 85.8066 36.7639C85.7199 36.4973 85.5782 36.2518 85.3906 36.0435C85.1786 35.8081 84.887 35.6399 84.304 35.3034L82.0237 33.9874C81.9058 33.9194 81.8469 33.8854 81.7638 33.8471C81.2872 33.6273 81.6317 33.7196 81.109 33.6717C81.0179 33.6634 80.2563 33.6634 78.733 33.6634C77.2232 33.6634 75.9974 32.4414 75.9974 30.9279C75.9974 29.4144 77.2232 28.1923 78.733 28.1923C80.2428 28.1923 81.4686 29.4181 81.4686 30.9279C81.4686 31.4268 81.6446 31.9474 82.0767 32.1967L87.0405 35.0611C87.3021 35.1882 87.4852 35.4609 87.4852 35.7712V53.0401C87.4852 54.068 88.3184 54.9012 89.3463 54.9012C90.3741 54.9012 91.2073 54.068 91.2073 53.0401V47.4007C91.2073 47.1717 91.2073 47.7442 91.1922 47.6221C91.1503 47.2823 91.2225 47.6299 91.1256 47.3015C91.0908 47.1835 90.5569 45.9539 89.4889 43.4948C89.3443 43.1617 89.2641 42.7943 89.2641 42.4082C89.2641 40.8947 90.4899 39.6726 91.9996 39.6726C93.5094 39.6726 94.7352 40.8947 94.7352 42.4082C94.7352 42.7943 94.655 43.1618 94.5104 43.4948C93.4424 45.9541 92.9085 47.1837 92.8737 47.3018C92.7768 47.6301 92.849 47.2825 92.8071 47.6223C92.792 47.7444 92.792 47.1716 92.792 47.4007V53.0774C92.792 54.0847 93.6085 54.9012 94.6158 54.9012Z" fill="white"/>
</g>
<defs>
<filter id="filter0_d_118_10305" x="4.95911e-05" y="2.47955e-05" width="129.6" height="129.6" filterUnits="userSpaceOnUse" color-interpolation-filters="sRGB">
<feFlood flood-opacity="0" result="BackgroundImageFix"/>
<feColorMatrix in="SourceAlpha" type="matrix" values="0 0 0 0 0 0 0 0 0 0 0 0 0 0 0 0 0 0 127 0" result="hardAlpha"/>
<feOffset dy="9.9"/>
<feGaussianBlur stdDeviation="9.9"/>
<feComposite in2="hardAlpha" operator="out"/>
<feColorMatrix type="matrix" values="0 0 0 0 0.764706 0 0 0 0 0.105882 0 0 0 0 0.713726 0 0 0 0.4 0"/>
<feBlend mode="normal" in2="BackgroundImageFix" result="effect1_dropShadow_118_10305"/>
<feBlend mode="normal" in="SourceGraphic" in2="effect1_dropShadow_118_10305" result="shape"/>
</filter>
<linearGradient id="paint0_linear_118_10305" x1="64.8" y1="9.90002" x2="64.8" y2="99.9" gradientUnits="userSpaceOnUse">
<stop stop-color="#F72DE0"/>
<stop offset="1" stop-color="#A3119C"/>
</linearGradient>
</defs>
</svg>
