<svg width="24" height="24" viewBox="0 0 24 24" fill="none" xmlns="http://www.w3.org/2000/svg">
<mask id="mask0_10_12534" style="mask-type:luminance" maskUnits="userSpaceOnUse" x="0" y="0" width="24" height="8">
<path d="M17.2056 0C16.1128 0.00303453 15.0166 0.0424834 13.9204 0.0788977C13.1774 0.103174 12.4344 0.133519 11.6981 0.209382C10.3121 0.35504 8.92934 0.524974 7.54663 0.704011C5.54752 0.961946 3.56507 1.30788 1.62594 1.81465C1.13283 1.9421 0.656373 2.12417 0.183251 2.30928C-0.0633051 2.40638 -0.0566413 2.56721 0.176588 2.69163C0.323189 2.77053 0.479786 2.84639 0.643046 2.88584C1.5693 3.11646 2.49555 3.35922 3.4318 3.55343C6.38381 4.16337 9.36248 4.67924 12.2579 5.49553C14.1204 6.02051 15.9529 6.6092 17.5322 7.74108C19.5313 5.65333 21.537 3.55647 23.5395 1.46264C23.1596 1.02871 22.5666 0.707045 21.8702 0.524974C20.4309 0.151726 18.9549 0.00606906 17.4689 0C17.4355 0 17.4022 0 17.3689 0H17.2056Z" fill="white"/>
</mask>
<g mask="url(#mask0_10_12534)">
<path d="M23.2478 -0.400116H-0.358276V7.34097H23.2478V-0.400116Z" fill="url(#paint0_linear_10_12534)"/>
</g>
<path d="M23.7359 1.84859C21.8501 3.98794 19.7777 5.98466 17.8319 8.01476C17.9985 8.38194 18.1717 8.69146 18.2783 9.02222C18.5715 9.92955 18.5715 10.8611 18.4349 11.7836C18.265 12.9125 18.0818 14.0474 17.8086 15.158C17.1488 17.8497 16.136 20.4472 15.1464 23.0478C15.0564 23.2875 14.9765 23.5303 14.8932 23.7731C14.8665 23.8489 14.8532 23.9248 14.8365 24.0007C14.8599 23.9734 14.8832 23.946 14.9032 23.9218C14.9665 23.8489 15.0098 23.77 15.0598 23.6881C15.1064 23.6153 15.1531 23.5424 15.1997 23.4666C15.3397 23.2481 15.4763 23.0296 15.6162 22.8081C15.7528 22.5896 15.8894 22.3681 16.0194 22.1435C17.8752 18.9846 19.5878 15.7589 21.0938 12.4452C22.1399 10.142 23.1062 7.81145 23.6726 5.35955C23.8592 4.55539 24.0491 3.74518 23.9891 2.91675C23.9625 2.55867 23.8658 2.1217 23.8092 1.76666C23.7792 1.80004 23.7792 1.80004 23.7359 1.84859Z" fill="url(#paint1_linear_10_12534)"/>
<mask id="mask1_10_12534" style="mask-type:luminance" maskUnits="userSpaceOnUse" x="14" y="1" width="11" height="24">
<path d="M23.7366 1.8495C21.8508 3.98884 19.7784 5.98556 17.8326 8.01566C17.9992 8.38284 18.1725 8.69236 18.2791 9.02312C18.5723 9.93045 18.5723 10.862 18.4357 11.7845C18.2657 12.9134 18.0825 14.0483 17.8093 15.1589C17.1496 17.8506 16.1367 20.4481 15.1471 23.0487C15.0572 23.2884 14.9772 23.5312 14.8939 23.774C14.8673 23.8498 14.8539 23.9257 14.8373 24.0016C14.8606 23.9743 14.8839 23.9469 14.9039 23.9227C14.9672 23.8498 15.0105 23.7709 15.0605 23.689C15.1072 23.6162 15.1538 23.5433 15.2005 23.4675C15.3404 23.249 15.477 23.0305 15.6169 22.809C15.7535 22.5905 15.8901 22.369 16.0201 22.1444C17.8759 18.9855 19.5885 15.7598 21.0945 12.4461C22.1407 10.1429 23.1069 7.81235 23.6733 5.36045C23.8599 4.5563 24.0498 3.74608 23.9899 2.91765C23.9632 2.55957 23.8666 2.1226 23.8099 1.76756C23.7799 1.80094 23.7799 1.80094 23.7366 1.8495Z" fill="white"/>
</mask>
<g mask="url(#mask1_10_12534)">
<path d="M24.0495 1.76711H14.8369V23.9981H24.0495V1.76711Z" fill="url(#paint2_linear_10_12534)"/>
</g>
<defs>
<linearGradient id="paint0_linear_10_12534" x1="-0.358276" y1="3.47043" x2="23.2478" y2="3.47043" gradientUnits="userSpaceOnUse">
<stop stop-color="#E5BEE5"/>
</linearGradient>
<linearGradient id="paint1_linear_10_12534" x1="19.4185" y1="1.76666" x2="19.4185" y2="24.0007" gradientUnits="userSpaceOnUse">
<stop stop-color="#FFC7FA"/>
<stop offset="1" stop-color="#FFF8FF"/>
</linearGradient>
<linearGradient id="paint2_linear_10_12534" x1="19.4432" y1="1.76711" x2="19.4432" y2="23.9981" gradientUnits="userSpaceOnUse">
<stop stop-color="#E5BEE5"/>
<stop offset="1" stop-color="#682C6A"/>
</linearGradient>
</defs>
</svg>
