<svg width="60" height="60" viewBox="0 0 60 60" fill="none" xmlns="http://www.w3.org/2000/svg">
<rect width="60" height="60" rx="16" fill="#F7ECF7"/>
<g filter="url(#filter0_d_153_13384)">
<mask id="mask0_153_13384" style="mask-type:luminance" maskUnits="userSpaceOnUse" x="14" y="16" width="32" height="11">
<path d="M36.946 16.666C35.4885 16.6701 34.0266 16.7227 32.5647 16.7712C31.5738 16.8036 30.583 16.8441 29.6009 16.9452C27.7525 17.1395 25.9084 17.3661 24.0644 17.6049C21.3983 17.9489 18.7545 18.4102 16.1684 19.086C15.5108 19.256 14.8754 19.4988 14.2444 19.7456C13.9156 19.8751 13.9245 20.0896 14.2355 20.2555C14.431 20.3608 14.6399 20.4619 14.8576 20.5145C16.0929 20.8221 17.3281 21.1458 18.5768 21.4048C22.5136 22.2182 26.4861 22.9062 30.3475 23.9948C32.8313 24.6949 35.2752 25.48 37.3814 26.9894C40.0475 24.2052 42.7225 21.4089 45.393 18.6166C44.8864 18.0379 44.0955 17.6089 43.1668 17.3661C41.2472 16.8684 39.2788 16.6741 37.297 16.666C37.2526 16.666 37.2081 16.666 37.1637 16.666H36.946Z" fill="white"/>
</mask>
<g mask="url(#mask0_153_13384)">
<path d="M45.0023 16.1328H13.5205V26.4562H45.0023V16.1328Z" fill="#AB3DAD"/>
</g>
<path d="M45.6438 19.1268C43.1289 21.9798 40.365 24.6427 37.7701 27.35C37.9922 27.8396 38.2233 28.2524 38.3655 28.6935C38.7565 29.9035 38.7565 31.1459 38.5743 32.3761C38.3477 33.8815 38.1033 35.395 37.7389 36.8762C36.8591 40.4657 35.5083 43.9298 34.1886 47.3979C34.0687 47.7176 33.962 48.0413 33.8509 48.3651C33.8154 48.4663 33.7976 48.5674 33.7754 48.6686C33.8065 48.6322 33.8376 48.5957 33.8643 48.5634C33.9487 48.4663 34.0064 48.361 34.0731 48.2518C34.1353 48.1546 34.1975 48.0575 34.2597 47.9564C34.4463 47.665 34.6285 47.3736 34.8152 47.0782C34.9973 46.7868 35.1795 46.4914 35.3528 46.1919C37.8278 41.9792 40.1117 37.6774 42.1202 33.2583C43.5154 30.1868 44.804 27.0788 45.5594 23.809C45.8082 22.7366 46.0615 21.6561 45.9815 20.5513C45.946 20.0738 45.8171 19.4911 45.7416 19.0176C45.7016 19.0621 45.7016 19.0621 45.6438 19.1268Z" fill="#AB3DAD"/>
</g>
<defs>
<filter id="filter0_d_153_13384" x="11.3333" y="15.9993" width="37.3304" height="37.3353" filterUnits="userSpaceOnUse" color-interpolation-filters="sRGB">
<feFlood flood-opacity="0" result="BackgroundImageFix"/>
<feColorMatrix in="SourceAlpha" type="matrix" values="0 0 0 0 0 0 0 0 0 0 0 0 0 0 0 0 0 0 127 0" result="hardAlpha"/>
<feOffset dy="2"/>
<feGaussianBlur stdDeviation="1.33333"/>
<feComposite in2="hardAlpha" operator="out"/>
<feColorMatrix type="matrix" values="0 0 0 0 0.670588 0 0 0 0 0.239216 0 0 0 0 0.678431 0 0 0 0.42 0"/>
<feBlend mode="normal" in2="BackgroundImageFix" result="effect1_dropShadow_153_13384"/>
<feBlend mode="normal" in="SourceGraphic" in2="effect1_dropShadow_153_13384" result="shape"/>
</filter>
</defs>
</svg>
